<svg width="500" height="500" viewBox="0 0 500 500" fill="none" xmlns="http://www.w3.org/2000/svg">
<path fill-rule="evenodd" clip-rule="evenodd" d="M308.401 208.678C308.401 208.678 275.128 200.34 213.223 169.629C70.0791 98.6121 115.057 63.3569 225.393 43.4976C48.8144 -33.3472 -90.4449 100.944 71.9107 231.052L28.198 261.986C64.7935 284.392 135.131 333.273 124.115 405.273L90.5144 429.926L197.807 479.46L286.987 439.728C287.646 399.847 359.491 379.465 390.183 298.348C559.131 259.62 516.618 116.44 374.491 102.041C475.921 183.361 393.05 196.651 308.401 208.678Z" fill="white"/>
<path fill-rule="evenodd" clip-rule="evenodd" d="M236.926 345.786L204.344 308.768L166.935 314.333L184.226 285.883L151.651 248.834L194.924 268.283L212.176 239.825L221.611 280.287L264.877 299.713L227.452 305.309L236.926 345.786ZM290.379 214.006C78.2893 132.162 64.2445 65.0302 196.628 41.8274C31.0654 -3.12323 -65.5052 116.761 98.3068 231.08L54.352 262.463C101.026 293.622 150.489 339.764 133.709 412.376L111.561 428.172L196.628 466.691C275.792 380.071 317.198 295.905 290.379 214.006V214.006Z" fill="#03202F"/>
<path fill-rule="evenodd" clip-rule="evenodd" d="M398.042 112.514C470.83 169.453 420.29 205.82 331.552 215.703C354.002 310.248 285.164 396.845 212.283 463.899L279.106 433.654C284.049 395.227 351.848 375.244 383.981 289.979C534.872 256.343 510.245 148.146 398.042 112.514" fill="#A71930"/>
</svg>
