<svg width="500" height="500" viewBox="0 0 500 500" fill="none" xmlns="http://www.w3.org/2000/svg">
<path fill-rule="evenodd" clip-rule="evenodd" d="M48.4109 298.884C62.8522 324.001 73.9083 337.84 88.9658 351.68C113.746 374.75 133.204 383.459 146.101 390.026C205.505 421.392 308.822 423.439 376.926 396.994C420.961 380.897 442.206 359.759 457.108 346.455C488.875 315.678 495.205 293.767 498.272 269.673H411.739C404.062 294.282 383.324 315.292 353.886 330.67C310.366 351.422 244.821 356.295 195.668 335.895C174.165 327.085 158.295 315.8 143.651 301.561C111.491 267.728 116.305 227.647 139.141 199.968C151.633 186.644 161.877 178.443 180.306 168.189C223.318 147.179 314.387 132.472 381.936 185.722H484.142C467.758 149.842 420.446 122.062 404.576 114.783C360.027 90.7976 267.604 70.8111 178.769 96.6397C157.015 102.841 131.667 115.4 109.649 130.161C86.6097 146.664 68.4378 167.423 57.4697 190.744C51.7893 203.045 50.2524 208.169 42.4732 220.47C26.6981 246.61 0.591309 256.349 0.591309 256.349C6.35295 258.782 30.2864 265.702 48.4109 298.884Z" fill="white"/>
<path d="M5.07422 259.769C7.73229 260.877 10.2783 262.09 12.9222 263.562C20.1083 267.563 26.9703 272.917 33.4269 280.102C38.4066 285.644 42.9801 292.116 47.076 299.615C61.1221 324.045 72.1736 338.314 87.9369 352.802C99.2232 363.31 110.079 371.511 121.194 378.34C125.544 381.012 129.81 383.404 134.514 385.859C137.263 387.294 145.878 391.621 145.412 391.384C204.462 422.563 308.085 425.359 377.476 398.413C393.546 392.54 407.494 385.68 419.97 377.828C427.945 372.807 435.113 367.525 442.257 361.58C445.033 359.27 447.718 356.937 450.824 354.16C452.144 352.979 456.999 348.593 458.121 347.591C473.365 332.824 483.425 319.515 489.823 306.219C495.193 295.061 497.932 284.395 499.782 269.866L500 268.15H498.272H411.74L410.287 269.219C402.888 292.934 382.892 313.8 353.182 329.32C307.874 350.924 242.915 353.855 196.251 334.489C176.11 326.236 160.252 315.58 144.711 300.469C115.5 269.736 115.583 230.913 140.315 200.938C153.039 187.369 163.282 179.404 181.045 169.52C204.96 157.841 238.606 150.309 271.905 150.631C312.547 151.023 350.234 162.669 380.995 186.918L484.143 187.245H486.511L485.526 185.089C478.039 168.693 463.806 152.879 445.1 138.325C431.434 127.692 415.955 118.327 405.21 113.398C381.129 100.43 346.077 90.026 308.46 85.5189C264.641 80.2686 219.872 83.1033 178.345 95.1772C156.914 101.287 131.476 113.694 108.803 128.895C85.2344 145.776 67.0469 166.805 56.0933 190.095C54.6295 193.265 50.8819 201.712 50.6053 202.32C50.1766 203.263 49.7775 204.124 49.3843 204.953C47.1102 209.747 44.7417 214.035 41.1878 219.655C37.0917 226.442 32.0865 232.464 26.3586 237.785C20.5904 243.143 14.4069 247.512 8.22592 250.963C6.06574 252.169 4.06228 253.174 2.26803 253.986C1.64348 254.268 1.09081 254.506 0.616579 254.701C0.337389 254.815 1.12263 257.776 1.12263 257.776C2.27741 257.311 2.86331 257.059 3.52129 256.761C5.3914 255.915 7.47109 254.872 9.70814 253.623C16.0906 250.06 22.4707 245.552 28.4284 240.017C34.3568 234.51 39.5433 228.27 43.7755 221.257C47.3777 215.562 49.8056 211.166 52.1329 206.26C52.5337 205.415 52.9396 204.539 53.3748 203.582C53.6607 202.953 57.4033 194.517 58.8508 191.383C69.5695 168.592 87.4131 147.961 110.535 131.399C132.92 116.393 158.074 104.123 179.186 98.1045C220.308 86.1483 264.669 83.3396 308.099 88.5433C345.354 93.0071 380.041 103.302 403.856 116.124C414.476 120.999 429.754 130.242 443.233 140.73C461.585 155.009 475.509 170.48 482.759 186.355L484.143 184.199H381.936C351.552 159.831 313.213 147.983 271.935 147.585C238.166 147.259 204.053 154.895 179.639 166.82C161.53 176.894 151.037 185.054 138.032 198.926C112.286 230.126 112.199 270.683 142.548 302.611C158.403 318.028 174.585 328.903 195.092 337.305C242.566 357.008 308.422 354.036 354.54 332.045C384.963 316.154 405.526 294.697 413.192 270.127L411.74 271.196H498.272L496.763 269.481C494.952 283.711 492.29 294.074 487.082 304.897C480.85 317.847 471.005 330.872 456.05 345.36C454.965 346.328 450.109 350.714 448.797 351.888C445.715 354.643 443.057 356.953 440.312 359.238C433.266 365.101 426.205 370.305 418.35 375.249C406.055 382.988 392.3 389.753 376.404 395.563C307.777 422.211 205.071 419.441 146.811 388.679C147.239 388.897 138.645 384.58 135.921 383.158C131.275 380.734 127.07 378.376 122.785 375.744C111.84 369.019 101.145 360.939 90.002 350.565C74.4733 336.292 63.6113 322.268 49.7295 298.124C45.5371 290.448 40.8271 283.783 35.6891 278.065C28.9998 270.621 21.872 265.06 14.4014 260.9C11.6503 259.368 9.00243 258.107 6.24424 256.957C4.86555 256.382 1.49973 255.08 1.1827 254.946L0 257.752C0.371778 257.909 3.74617 259.215 5.07422 259.769Z" fill="white"/>
<path fill-rule="evenodd" clip-rule="evenodd" d="M48.2092 236.87C57.9315 226.108 65.616 198.429 80.9781 177.419C102.799 146.629 131.682 130.506 153.171 120.218C202.325 96.1239 272.981 89.2584 342.107 105.863C367.191 111.814 392.283 120.726 410.204 132.417C428.125 143.078 449.12 158.456 460.894 173.42H387.063C365.154 155.887 341.085 147.381 319.575 142.766C295.513 136.619 257.625 133.339 212.561 144.101C185.94 150.763 167.511 159.987 149.59 172.803C114.262 197.92 75.3451 263.932 144.471 321.337C166.996 340.402 185.94 346.555 206.928 353.834C245.845 365.112 294.49 362.964 322.649 355.271C365.154 344 381.017 329.131 394.842 317.338C407.645 305.044 418.396 290.174 421.368 282.482L481.991 282.387C477.793 305.044 461.409 323.492 445.539 338.87C427.36 356.024 413.792 365.004 386.961 378.436C324.186 408.575 232.02 407.552 175.189 386.949C146.001 376.281 137.809 371.462 115.792 356.186C97.8703 341.737 86.0965 332.201 69.2043 306.067C61.5198 293.251 57.9315 286.074 49.2315 274.288C43.084 267.626 38.9946 261.472 28.2432 256.348C38.0941 249.435 43.4699 244.305 48.2092 236.87Z" fill="#E64100"/>
</svg>
