<svg width="500" height="500" viewBox="0 0 500 500" fill="none" xmlns="http://www.w3.org/2000/svg">
<g clip-path="url(#clip0_37_7177)">
<path d="M499.918 360.977V59.2852H416.078V234.93C416.078 237.065 416.078 239.118 416.078 241.17C416.078 243.223 416.078 242.813 416.078 243.634C415.653 246.753 414.512 249.733 412.746 252.339C410.98 254.946 408.636 257.109 405.896 258.661C402.566 260.549 398.802 261.539 394.974 261.535C389.557 261.713 384.288 259.74 380.319 256.048C376.35 252.356 374.003 247.244 373.789 241.827V59.4493H257.924V127.851H279.274C282.018 127.851 284.65 128.941 286.59 130.882C288.531 132.822 289.621 135.454 289.621 138.198V176.217V226.143V271.964C290.307 282.433 293.49 292.585 298.905 301.571C304.319 310.557 311.807 318.116 320.742 323.614C337.165 336.835 378.223 342.911 399.984 335.192C405.502 333.443 410.816 331.103 415.832 328.213V345.128C415.974 348.451 415.472 351.769 414.354 354.9C412.531 358.119 409.796 360.726 406.493 362.393C403.19 364.059 399.468 364.709 395.796 364.261H38.2656V443.831H425.768C436.657 443.443 447.475 441.902 458.039 439.233C470.767 435.291 500 421.66 500 378.385C500 377.564 500 361.634 499.918 360.977Z" fill="#A71930"/>
<path d="M326.244 313.432L327.065 313.842L327.722 314.335C341.517 325.339 377.894 330.758 395.96 324.107C400.444 322.712 404.766 320.84 408.852 318.523L426.835 306.452V345.046C426.994 349.651 426.298 354.244 424.782 358.595V359.17V359.663C421.498 366.725 413.861 375.265 395.713 376.086H49.8438V432.499H425.357C435.216 432.189 445.014 430.84 454.59 428.475C467.236 424.534 488.422 412.955 488.422 378.631C488.422 378.631 488.422 92.5415 488.422 71.1916H427.738V242.238V245.194C427.06 250.078 425.272 254.742 422.51 258.827C419.749 262.913 416.087 266.311 411.808 268.761C405.404 272.416 397.978 273.873 390.668 272.909C383.357 271.945 376.563 268.614 371.325 263.424C365.648 257.762 362.432 250.091 362.375 242.073C362.375 242.073 362.375 91.1458 362.375 70.8633H269.502V116.191H279.274C285.082 116.212 290.646 118.529 294.753 122.636C298.86 126.743 301.177 132.307 301.199 138.115V176.135V226.061V271.389C301.744 279.88 304.3 288.119 308.654 295.429C313.008 302.739 319.037 308.909 326.244 313.432Z" fill="white"/>
<path d="M253.818 266.543C251.081 266.522 248.462 265.425 246.526 263.489C244.59 261.553 243.493 258.934 243.472 256.197V254.719C243.472 252.255 243.472 249.792 243.472 247.328V197.402C243.472 191.408 243.472 187.63 243.472 187.63V112.659C242.671 103.087 239.45 93.8751 234.111 85.8897C224.943 72.296 210.882 62.7653 194.86 59.2844C182.154 55.8952 168.857 55.3447 155.914 57.6721C142.972 59.9995 130.7 65.1477 119.971 72.7512V59.4486H0V128.015H27.9194C29.2851 128.015 30.6372 128.285 31.8979 128.81C33.1585 129.335 34.3028 130.105 35.2646 131.074C36.2265 132.044 36.9868 133.194 37.5019 134.459C38.017 135.723 38.2766 137.078 38.2658 138.443V333.057H120.381V149.119C120.786 143.984 123.099 139.188 126.863 135.673C130.628 132.159 135.572 130.181 140.722 130.13C145.872 130.078 150.855 131.956 154.689 135.395C158.523 138.833 160.931 143.583 161.439 148.708V297.008C161.413 301.215 162.165 305.391 163.656 309.325C166.144 316.043 170.621 321.842 176.489 325.95C182.357 330.058 189.339 332.279 196.502 332.318H273.116V266.626H253.736L253.818 266.543Z" fill="#A71930"/>
<path d="M231.894 256.525V112.823L231.073 107.157C229.922 101.719 227.718 96.5583 224.585 91.9661C216.947 80.6213 205.146 72.744 191.739 70.0415C180.722 67.0444 169.178 66.5208 157.935 68.5083C146.691 70.4958 136.026 74.9451 126.704 81.5375L108.146 95.6614V71.0268H11.25V116.601H27.6731C33.4879 116.601 39.0645 118.911 43.1762 123.022C47.2879 127.134 49.5977 132.711 49.5977 138.526V321.561H108.228V149.119C108.589 140.868 112.107 133.072 118.054 127.343C124.001 121.614 131.923 118.39 140.181 118.337C148.439 118.284 156.401 121.407 162.421 127.06C168.441 132.713 172.058 140.463 172.524 148.708V297.008C172.527 299.819 173.056 302.604 174.085 305.22C175.783 309.758 178.821 313.672 182.795 316.444C186.769 319.216 191.492 320.714 196.338 320.739H261.455V278.039H253.244C247.606 277.872 242.247 275.547 238.274 271.544C234.301 267.54 232.018 262.164 231.894 256.525Z" fill="white"/>
</g>
<defs>
<clipPath id="clip0_37_7177">
<rect width="500" height="387.666" fill="white" transform="translate(0 56)"/>
</clipPath>
</defs>
</svg>
