<?xml version="1.0" encoding="UTF-8"?>
<svg width="500px" height="500px" viewBox="0 0 500 500" version="1.1" xmlns="http://www.w3.org/2000/svg" xmlns:xlink="http://www.w3.org/1999/xlink">
    <!-- Generator: Sketch 54.1 (76490) - https://sketchapp.com -->
    <title>NYJ</title>
    <desc>Created with Sketch.</desc>
    <g id="NYJ" stroke="none" stroke-width="1" fill="none" fill-rule="evenodd">
        <g id="Asset-1" transform="translate(0.000000, 101.000000)" fill-rule="nonzero">
            <path d="M260.754505,200.233509 L257.972973,200.233509 C257.747748,200.492151 257.511261,200.762038 257.263514,201.020679 C257.635135,206.021704 257.635135,211.043353 257.263514,216.044377 C257.511261,216.303019 257.747748,216.572906 257.972973,216.831547 L260.754505,216.831547 L261.621622,216.010642 C262.218474,211.069379 262.218474,206.074395 261.621622,201.133132 L260.754505,200.233509 Z" id="Path" fill="#115740"></path>
            <path d="M243.040541,200.166038 L240.27027,200.166038 L239.391892,200.975698 C238.795039,205.916961 238.795039,210.911945 239.391892,215.853208 L240.27027,216.674113 L243.040541,216.674113 L243.75,215.886943 C243.389627,210.885509 243.389627,205.86468 243.75,200.863245 L243.040541,200.166038 Z" id="Path" fill="#115740"></path>
            <path d="M251.891892,200.166038 L249.121622,200.166038 L248.333333,200.975698 C248.205706,205.998591 248.205706,211.028981 248.333333,216.066868 L249.121622,216.876528 L251.891892,216.876528 L252.691441,216.066868 C252.804054,211.036478 252.804054,206.006088 252.691441,200.975698 L251.891892,200.166038 Z" id="Path" fill="#115740"></path>
            <path d="M291.959459,96.3608302 C292.778222,96.3870406 293.578631,96.1152876 294.211712,95.5961509 C294.893274,94.9509234 295.453887,94.1892665 295.867117,93.3470943 L299.11036,87.2858868 C299.520533,86.6030462 299.760016,85.8316172 299.808559,85.0368302 C299.808559,83.9123019 299.166667,83.4287547 297.871622,83.4287547 C297.058561,83.3898743 296.258779,83.6454414 295.619369,84.1484528 C294.91396,84.8132971 294.337489,85.6024387 293.918919,86.4762264 L290.675676,92.537434 C290.265503,93.2202746 290.02602,93.9917035 289.977477,94.7864906 C290.022523,95.8323019 290.664414,96.3608302 291.959459,96.3608302 Z" id="Path" fill="#115740"></path>
            <path d="M485.45045,136.450264 C476.948198,108.337057 440.168919,74.8823396 386.959459,46.9603019 C339.864865,22.2431698 284.346847,13.4943396 250.822072,13.4943396 L249.211712,13.4943396 C215.653153,13.4943396 160.135135,22.2431698 113.040541,46.9603019 C59.8198198,74.8823396 23.0518018,108.314566 14.5495495,136.450264 C13.8152078,140.531797 13.4683239,144.673438 13.5135135,148.820075 L13.5135135,148.955019 C13.4675847,153.101684 13.8144745,157.243393 14.5495495,161.32483 C23.0518018,189.438038 59.8198198,222.892755 113.040541,250.826038 C160.405405,275.689358 216.283784,284.404453 249.774775,284.292 L250.788288,284.292 C284.335586,284.292 339.864865,275.54317 386.959459,250.826038 C440.168919,222.904 476.948198,189.471774 485.45045,161.336075 C486.173235,157.253035 486.520029,153.112472 486.486486,148.966264 L486.486486,148.831321 C486.520717,144.68136 486.173921,140.537001 485.45045,136.450264 Z M375.09009,77.9747925 L369.369369,88.7702642 L381.216216,78.0197736 L394.538288,78.0197736 L381.328829,89.6136604 L382.882883,101.758566 L368.704955,101.758566 L368.006757,91.2329811 L362.376126,101.758566 L347.736486,101.758566 L360.36036,78.0197736 L375.09009,77.9747925 Z M344.211712,77.9747925 C347.162162,77.9747925 349.207958,78.5370566 350.349099,79.6615849 C351.219,80.6325701 351.65423,81.9161 351.554054,83.2150943 C351.590609,85.4476232 350.702277,87.5961254 349.099099,89.1526038 C348.302032,89.9561605 347.367705,90.611166 346.34009,91.0867925 C345.186471,91.5325001 343.984616,91.8419727 342.759009,92.0089057 C345.011261,92.7286038 346.137387,93.8306415 346.137387,95.2925283 C346.082309,96.2983968 345.780682,97.2753635 345.259009,98.1375849 L343.288288,101.72483 L328.941441,101.72483 L331.407658,97.1030189 C331.704441,96.6124941 331.874694,96.0560946 331.903153,95.4836981 C331.903153,94.4828679 331.25,93.9768302 329.943694,93.9768302 L327.894144,93.9768302 L323.806306,101.72483 L309.515766,101.72483 L322.184685,78.0197736 L344.211712,77.9747925 Z M310.506757,79.0993208 C312.612183,79.8852568 313.998974,81.9040415 313.975225,84.1484528 C313.864022,86.2253209 313.286729,88.2506651 312.286036,90.074717 C311.012073,92.8716209 309.301603,95.4488688 307.218468,97.7102642 C304.147898,100.791472 298.813814,102.332075 291.216216,102.332075 C285.810811,102.332075 281.876877,101.739824 279.414414,100.555321 C277.322525,99.7888 275.923674,97.8099066 275.900901,95.5849057 C276.013475,93.504705 276.590631,91.4759983 277.59009,89.6473962 C278.867606,86.8456628 280.577606,84.2615344 282.657658,81.9893585 C285.720721,78.9306415 291.051051,77.401283 298.648649,77.401283 C304.039039,77.401283 307.984234,77.9935346 310.484234,79.1780377 L310.506757,79.0993208 Z M248.468468,77.9747925 L262.939189,77.9747925 L262.747748,85.3292075 L270.045045,77.9747925 L283.333333,77.9747925 L264.313063,94.3929057 L260.371622,101.758566 L245.315315,101.758566 L249.481982,93.9768302 L248.468468,77.9747925 Z M201.497748,77.9747925 L198.682432,89.0289057 L206.858108,77.9747925 L220.371622,77.9747925 L217.207207,89.1076226 L225.777027,77.9747925 L238.738739,77.9747925 L217.454955,101.758566 L203.175676,101.758566 L205.427928,92.5486792 L197.635135,101.758566 L183.29955,101.758566 L187.804054,78.0197736 L201.497748,77.9747925 Z M185.202703,77.9747925 L181.993243,83.9797736 L167.5,83.9797736 L165.878378,86.8698113 L179.391892,86.8698113 L176.306306,92.6948679 L162.826577,92.6948679 L161.171171,95.6973585 L176.148649,95.6973585 L172.939189,101.713585 L144.222973,101.713585 L156.880631,77.9747925 L185.202703,77.9747925 Z M119.245495,77.9747925 L132.286036,77.9747925 L134.538288,88.1517736 L139.786036,77.9747925 L151.362613,77.9747925 L138.671171,101.758566 L126.283784,101.758566 L123.873874,90.7381887 L118.164414,101.758566 L106.554054,101.758566 L119.245495,77.9747925 Z M107.105856,188.077358 C80.8783784,188.077358 69.9436937,181.78 69.9436937,170.084906 C69.9436937,164.11366 71.4189189,159.817962 74.9887387,153.329434 L79.1103604,145.457736 L113.108108,145.457736 L104.72973,161.572226 C103.693757,163.36983 103.052686,165.366983 102.849099,167.431019 C102.849099,169.736302 103.975225,171.411849 106.936937,171.411849 C111.34009,171.411849 113.547297,168.47683 116.486486,163.034113 L138.108108,121.865132 L177.927928,121.865132 L159.90991,156.309434 C154.774775,165.946642 151.52027,171.389358 146.396396,176.550943 C138.682432,184.197736 125.990991,188.077358 107.105856,188.077358 Z M184.493243,121.865132 L261.385135,121.865132 L252.668919,138.204528 L213.333333,138.204528 L208.93018,146.076226 L248.671171,146.076226 L240.27027,161.932075 L200.641892,161.932075 L196.137387,170.096151 L236.824324,170.096151 L236.632883,170.456 C228.624535,171.814561 220.872714,174.393571 213.648649,178.102792 C209.031409,180.508042 204.624101,183.295376 200.472973,186.435547 L150.078829,186.435547 L184.493243,121.865132 Z M190.427928,211.411321 C190.427928,211.411321 190.427928,211.411321 190.427928,211.332604 L190.427928,211.467547 C190.427928,211.467547 190.427928,211.478792 190.427928,211.411321 Z M266.204955,215.774491 L266.835586,216.527925 L269.605856,216.437962 L270.563063,215.628302 C270.894832,214.146391 271.124351,212.643488 271.25,211.130189 C274.144144,211.130189 277.038288,211.028981 279.932432,210.939019 C289.279279,210.691623 298.637387,210.320528 307.984234,209.679547 L309.572072,211.568755 L309.572072,211.568755 C307.443694,218.743245 298.502252,227.312151 284.459459,234.655321 C273.810032,239.978935 262.099097,242.84583 250.191441,243.044302 L249.81982,243.044302 C237.883594,242.838409 226.147434,239.94793 215.484234,234.587849 C201.531532,227.244679 192.635135,218.709509 190.461712,211.568755 L192.038288,209.679547 C201.385135,210.331774 210.720721,210.691623 220.067568,210.939019 C223.29955,211.040226 226.531532,211.096453 229.763514,211.141434 C229.894153,212.654143 230.12362,214.156714 230.45045,215.639547 L231.407658,216.449208 L234.177928,216.53917 L234.808559,215.785736 C233.969215,210.948821 233.969215,206.003783 234.808559,201.166868 C234.594595,200.919472 234.391892,200.66083 234.177928,200.402189 L231.407658,200.503396 L230.45045,201.313057 C230.122309,202.795645 229.892828,204.298303 229.763514,205.81117 C226.531532,205.81117 223.29955,205.923623 220.067568,206.02483 C210.720721,206.272226 201.385135,206.632075 192.038288,207.284302 L190.315315,205.23766 C190.335227,205.048761 190.365301,204.861069 190.405405,204.675396 C192.5,197.512151 201.43018,188.932 215.461712,181.543849 C226.124532,176.181328 237.860399,173.287078 249.797297,173.076151 L250.168919,173.076151 C262.076575,173.274623 273.787509,176.141518 284.436937,181.465132 C298.47973,188.830792 307.421171,197.388453 309.54955,204.551698 L309.650901,205.260151 L307.961712,207.284302 C298.614865,206.632075 289.256757,206.272226 279.90991,206.02483 C277.015766,205.934868 274.121622,205.878642 271.227477,205.83366 C271.102644,204.320265 270.873117,202.817306 270.540541,201.335547 L269.583333,200.525887 L266.891892,200.390943 C266.689189,200.649585 266.475225,200.908226 266.261261,201.155623 C267.087194,206.010428 267.068146,210.971134 266.204955,215.819472 L266.204955,215.774491 Z M297.297297,184.692528 C293.776999,182.200728 290.093867,179.946648 286.272523,177.945358 C279.252275,174.355997 271.732345,171.839011 263.963964,170.478491 L281.193694,138.316981 L259.268018,138.316981 L268.074324,121.865132 L350.731982,121.865132 L341.925676,138.316981 L322.072072,138.316981 L297.297297,184.692528 Z M428.164414,143.546038 L396.396396,143.546038 C397.268343,142.090055 397.738493,140.429406 397.759009,138.733057 C397.759009,136.427774 395.135135,134.752226 390.518018,134.752226 C384.752252,134.752226 381.813063,137.158717 381.813063,139.778868 C381.813063,142.027925 384.436937,142.916302 398.175676,146.166189 C411.914414,149.416075 416.846847,152.452302 416.846847,159.896679 C416.846847,165.969132 414.121622,172.142792 408.873874,177.383094 C402.274775,183.984075 392.40991,188.077358 367.961712,188.077358 C339.02027,188.077358 330.619369,183.35434 330.619369,173.402264 C330.632359,170.153956 331.428036,166.956479 332.939189,164.079925 L365.337838,164.079925 C364.455643,165.722863 363.991568,167.557223 363.986486,169.421434 C363.986486,171.929132 366.396396,173.503472 371.418919,173.503472 C376.981982,173.503472 380.236486,171.513057 380.236486,168.060755 C380.236486,164.923321 377.40991,164.192377 362.826577,160.51517 C349.189189,157.062868 345.304054,154.442717 345.304054,147.110792 C345.304054,142.185358 348.029279,136.112906 353.074324,131.086264 C360.202703,123.956755 370.067568,120.189585 393.986486,120.189585 C420.416667,120.189585 430.022523,124.384075 430.022523,134.437358 C430.103782,137.573909 429.472362,140.688083 428.175676,143.546038 L428.164414,143.546038 Z" id="Shape" fill="#115740"></path>
            <path d="M335.686937,87.5782642 L336.272523,86.4537358 C336.505156,86.0526849 336.636564,85.6011283 336.655405,85.1380377 C336.655405,84.3733585 336.171171,84.0135094 335.191441,84.0135094 L333.063063,84.0135094 L330.022523,89.5686792 L332.759009,89.5686792 C334.042739,89.5400829 335.189632,88.7604213 335.686937,87.5782642 L335.686937,87.5782642 Z" id="Path" fill="#115740"></path>
            <path d="M323.806306,101.758566 L327.894144,94.010566 L329.954955,94.010566 C331.261261,94.010566 331.914414,94.5166038 331.914414,95.517434 C331.885955,96.0898304 331.715703,96.6462299 331.418919,97.1367547 L328.952703,101.758566 L343.310811,101.758566 L345.281532,98.1713208 C345.803204,97.3090993 346.104831,96.3321326 346.15991,95.3262642 C346.15991,93.8643774 345.033784,92.7623396 342.781532,92.0426415 C344.007138,91.8757086 345.208993,91.566236 346.362613,91.1205283 C347.384828,90.6324715 348.311539,89.9660338 349.099099,89.1526038 C350.702277,87.5961254 351.590609,85.4476232 351.554054,83.2150943 C351.635668,81.9281129 351.192996,80.6628134 350.326577,79.706566 C349.192943,78.5820377 347.147147,78.0197736 344.189189,78.0197736 L322.184685,78.0197736 L309.515766,101.758566 L323.806306,101.758566 Z M333.063063,84.0247547 L335.191441,84.0247547 C336.171171,84.0247547 336.655405,84.4183396 336.655405,85.149283 C336.636564,85.6123736 336.505156,86.0639302 336.272523,86.4649811 L335.686937,87.5895094 C335.193064,88.7760698 334.04544,89.5606364 332.759009,89.5911698 L330.022523,89.5911698 L333.063063,84.0247547 Z M197.578829,101.758566 L205.371622,92.5486792 L203.119369,101.758566 L217.454955,101.758566 L238.738739,78.0197736 L225.754505,78.0197736 L217.184685,89.1526038 L220.349099,78.0197736 L206.835586,78.0197736 L198.65991,89.0738868 L201.475225,78.0197736 L187.77027,78.0197736 L183.265766,101.758566 L197.578829,101.758566 Z M277.59009,89.6136604 C276.585782,91.4524192 276.008474,93.4931914 275.900901,95.5849057 C275.890741,97.8387653 277.295517,99.8575128 279.414414,100.634038 C281.884384,101.766063 285.818318,102.332075 291.216216,102.332075 C298.806306,102.332075 304.132883,100.802717 307.195946,97.744 C309.27908,95.4826047 310.989551,92.9053567 312.263514,90.1084528 C313.264207,88.2844009 313.841499,86.2590568 313.952703,84.1821887 C313.976451,81.9377773 312.58966,79.9189927 310.484234,79.1330566 C307.984234,77.9410566 304.035285,77.348805 298.637387,77.3563019 C291.03979,77.3563019 285.709459,78.8856604 282.646396,81.9443774 C280.569352,84.2207627 278.863137,86.808708 277.59009,89.6136604 L277.59009,89.6136604 Z M290.720721,92.537434 L293.918919,86.4762264 C294.339664,85.5975208 294.920062,84.8044192 295.630631,84.1372075 C296.27004,83.6341961 297.069822,83.378629 297.882883,83.4175094 C299.177928,83.4175094 299.81982,83.9460377 299.81982,85.0255849 C299.771277,85.8203719 299.531795,86.5918009 299.121622,87.2746415 L295.88964,93.3358491 C295.47641,94.1780212 294.915797,94.9396782 294.234234,95.5849057 C293.601153,96.1040423 292.800744,96.3757953 291.981982,96.3495849 C290.686937,96.3495849 290.045045,95.8210566 290.045045,94.7415094 C290.093785,93.9640213 290.325262,93.2089344 290.720721,92.537434 Z M260.315315,101.758566 L264.256757,94.3929057 L283.333333,78.0197736 L270.022523,78.0197736 L262.725225,85.3741887 L262.916667,78.0197736 L248.445946,78.0197736 L249.481982,93.9768302 L245.315315,101.758566 L260.315315,101.758566 Z M172.882883,101.758566 L176.092342,95.7423396 L161.114865,95.7423396 L162.77027,92.7398491 L176.204955,92.7398491 L179.290541,86.9147925 L165.777027,86.9147925 L167.398649,84.0247547 L181.869369,84.0247547 L185.078829,78.0197736 L156.880631,78.0197736 L144.222973,101.758566 L172.882883,101.758566 Z M362.353604,101.758566 L367.984234,91.2329811 L368.682432,101.758566 L382.882883,101.758566 L381.385135,89.6136604 L394.54955,78.0197736 L381.171171,78.0197736 L369.369369,88.7702642 L375.112613,78.0197736 L360.36036,78.0197736 L347.747748,101.758566 L362.353604,101.758566 Z M350.675676,121.865132 L268.018018,121.865132 L259.268018,138.316981 L281.193694,138.316981 L263.975225,170.512226 C271.743607,171.872747 279.263536,174.389733 286.283784,177.979094 C290.105128,179.980384 293.78826,182.234464 297.308559,184.726264 L322.072072,138.316981 L341.891892,138.316981 L350.675676,121.865132 Z M123.873874,90.7381887 L126.261261,101.758566 L138.648649,101.758566 L151.306306,78.0197736 L139.752252,78.0197736 L134.504505,88.1967547 L132.252252,78.0197736 L119.222973,78.0197736 L106.554054,101.758566 L118.141892,101.758566 L123.873874,90.7381887 Z M498.693694,133.638943 L498.536036,132.975472 C489.076577,100.858943 450.709459,65.1551698 393.265766,35.006566 C343.975225,9.14241509 285.88964,0 250.822072,0 L249.20045,0 C214.121622,0 156.024775,9.15366038 106.745495,35.006566 C49.3130631,65.1551698 10.9459459,100.858943 1.48648649,132.975472 L1.32882883,133.638943 C-0.442945119,143.746582 -0.442945119,154.084739 1.32882883,164.192377 L1.48648649,164.867094 C10.9459459,196.983623 49.3130631,232.687396 106.745495,262.824755 C156.024775,288.688906 214.121622,297.842566 249.189189,297.842566 L250.788288,297.842566 C285.867117,297.842566 343.975225,288.688906 393.243243,262.824755 C450.675676,232.687396 489.054054,196.983623 498.513514,164.867094 L498.671171,164.192377 C500.442945,154.084739 500.442945,143.746582 498.671171,133.638943 L498.693694,133.638943 Z M486.486486,148.988755 C486.520029,153.134962 486.173235,157.275525 485.45045,161.358566 C476.948198,189.471774 440.168919,222.926491 386.959459,250.848528 C339.864865,275.588151 284.335586,284.314491 250.788288,284.314491 L249.774775,284.314491 C216.283784,284.426943 160.405405,275.711849 113.040541,250.848528 C59.8198198,222.915245 23.0518018,189.494264 14.5495495,161.347321 C13.8144745,157.265884 13.4675847,153.124174 13.5135135,148.977509 L13.5135135,148.842566 C13.4683239,144.695928 13.8152078,140.554288 14.5495495,136.472755 C23.0518018,108.359547 59.8198198,74.9048302 113.040541,46.9827925 C160.135135,22.2431698 215.653153,13.4943396 249.211712,13.4943396 L250.822072,13.4943396 C284.346847,13.4943396 339.864865,22.2431698 386.959459,46.9603019 C440.168919,74.8823396 476.948198,108.314566 485.45045,136.450264 C486.173235,140.533305 486.520029,144.673868 486.486486,148.820075 L486.486486,148.988755 Z M269.605856,200.492151 L270.563063,201.301811 C270.89564,202.783571 271.125166,204.286529 271.25,205.799925 C274.144144,205.799925 277.038288,205.901132 279.932432,205.991094 C289.279279,206.238491 298.637387,206.59834 307.984234,207.250566 L309.673423,205.226415 L309.572072,204.517962 C307.443694,197.354717 298.502252,188.774566 284.459459,181.431396 C273.810032,176.107782 262.099097,173.240887 250.191441,173.042415 L249.81982,173.042415 C237.882922,173.253342 226.147055,176.147592 215.484234,181.510113 C201.452703,188.920755 192.567568,197.512151 190.427928,204.664151 C190.387823,204.849824 190.35775,205.037516 190.337838,205.226415 L192.038288,207.273057 C201.385135,206.62083 210.720721,206.260981 220.067568,206.013585 C223.29955,205.912377 226.531532,205.856151 229.763514,205.799925 C229.892828,204.287058 230.122309,202.7844 230.45045,201.301811 L231.407658,200.492151 L234.177928,200.390943 C234.391892,200.649585 234.594595,200.908226 234.808559,201.155623 C233.969215,205.992538 233.969215,210.937575 234.808559,215.774491 L234.177928,216.527925 L231.407658,216.437962 L230.45045,215.628302 C230.12362,214.145469 229.894153,212.642898 229.763514,211.130189 C226.531532,211.130189 223.29955,211.028981 220.067568,210.927774 C210.720721,210.680377 201.385135,210.320528 192.038288,209.668302 L190.461712,211.557509 C192.635135,218.698264 201.531532,227.233434 215.484234,234.576604 C226.147434,239.936685 237.883594,242.827164 249.81982,243.033057 L250.191441,243.033057 C262.099097,242.834584 273.810032,239.967689 284.459459,234.644075 C298.502252,227.28966 307.443694,218.732 309.572072,211.557509 L309.572072,211.557509 L307.984234,209.668302 C298.637387,210.309283 289.279279,210.680377 279.932432,210.927774 C277.038288,211.017736 274.144144,211.073962 271.25,211.118943 C271.124351,212.632243 270.894832,214.135146 270.563063,215.617057 L269.605856,216.426717 L266.835586,216.516679 L266.204955,215.763245 C267.044299,210.92633 267.044299,205.981293 266.204955,201.144377 C266.418919,200.896981 266.632883,200.63834 266.835586,200.379698 L269.605856,200.492151 Z M243.704955,215.999396 L242.995495,216.786566 L240.225225,216.786566 L239.346847,215.96566 C238.749994,211.024398 238.749994,206.029413 239.346847,201.088151 L240.225225,200.278491 L242.995495,200.278491 L243.704955,201.06566 C243.363884,206.038294 243.378938,211.028904 243.75,215.999396 L243.704955,215.999396 Z M252.646396,215.999396 L251.846847,216.809057 L249.076577,216.809057 L248.288288,215.999396 C248.160661,210.969006 248.160661,205.938616 248.288288,200.908226 L249.076577,200.098566 L251.846847,200.098566 L252.646396,200.908226 C252.789039,205.961107 252.804054,211.002742 252.691441,216.033132 L252.646396,215.999396 Z M261.576577,215.886943 L260.709459,216.707849 L257.927928,216.707849 C257.702703,216.449208 257.466216,216.179321 257.218468,215.920679 C257.59009,210.919655 257.59009,205.898006 257.218468,200.896981 C257.466216,200.63834 257.702703,200.368453 257.927928,200.109811 L260.709459,200.109811 L261.576577,200.919472 C262.197482,205.895991 262.212607,210.929283 261.621622,215.909434 L261.576577,215.886943 Z M393.93018,120.155849 C370.011261,120.155849 360.146396,123.923019 353.018018,131.052528 C347.972973,136.07917 345.247748,142.151623 345.247748,147.077057 C345.247748,154.408981 349.132883,157.029132 362.77027,160.481434 C377.353604,164.158642 380.18018,164.889585 380.18018,168.027019 C380.18018,171.479321 376.925676,173.469736 371.362613,173.469736 C366.34009,173.469736 363.93018,171.895396 363.93018,169.387698 C363.935261,167.523488 364.399337,165.689127 365.281532,164.046189 L332.927928,164.046189 C331.416775,166.922743 330.621098,170.12022 330.608108,173.368528 C330.608108,183.320604 339.009009,188.043623 367.95045,188.043623 C392.398649,188.043623 402.263514,183.95034 408.862613,177.349358 C414.11036,172.109057 416.835586,165.935396 416.835586,159.862943 C416.835586,152.418566 411.914414,149.38234 398.164414,146.132453 C384.414414,142.882566 381.756757,142.084151 381.756757,139.778868 C381.756757,137.158717 384.695946,134.752226 390.461712,134.752226 C395.078829,134.752226 397.702703,136.427774 397.702703,138.733057 C397.682187,140.429406 397.212037,142.090055 396.34009,143.546038 L428.130631,143.546038 C429.438935,140.690795 430.08193,137.576504 430.011261,134.437358 C430.056306,124.384075 420.405405,120.189585 393.975225,120.189585 L393.93018,120.155849 Z M177.927928,121.865132 L138.063063,121.865132 L116.441441,163.056604 C113.502252,168.499321 111.295045,171.43434 106.891892,171.43434 C103.952703,171.43434 102.804054,169.758792 102.804054,167.453509 C103.018353,165.378332 103.674951,163.372991 104.72973,161.572226 L113.175676,145.446491 L79.1328829,145.446491 L75.0112613,153.318189 C71.4414414,159.806717 69.9662162,164.102415 69.9662162,170.07366 C69.9662162,181.802491 80.8783784,188.066113 107.128378,188.066113 C126.013514,188.066113 138.65991,184.186491 146.351351,176.539698 C151.497748,171.400604 154.752252,165.957887 159.864865,156.298189 L177.927928,121.865132 Z M190.427928,211.411321 C190.427928,211.411321 190.427928,211.411321 190.427928,211.467547 L190.427928,211.332604 C190.427928,211.332604 190.416667,211.411321 190.427928,211.411321 Z M213.648649,178.01283 C220.872714,174.303609 228.624535,171.724599 236.632883,170.366038 L236.824324,170.006189 L196.126126,170.006189 L200.630631,161.842113 L240.259009,161.842113 L248.65991,146.02 L208.93018,146.02 L213.333333,138.148302 L252.668919,138.148302 L261.385135,121.808906 L184.493243,121.808906 L150.078829,186.33434 L200.45045,186.33434 C204.61082,183.212503 209.02564,180.44399 213.648649,178.057811 L213.648649,178.01283 Z" id="Shape" fill="#FFFFFF"></path>
        </g>
    </g>
</svg>