<svg width="500" height="500" viewBox="0 0 500 500" fill="none" xmlns="http://www.w3.org/2000/svg">
<g clip-path="url(#clip0_199_20)">
<path d="M499.963 394.887V394.555C497.708 364.144 490.905 333.381 479.165 300.493L479.036 300.16L478.888 299.827L477.52 296.555L477.686 296.925C472.787 284.206 462.564 278.715 447.515 280.564L440.749 281.322L437.976 281.562C426.385 282.616 409.709 284.113 395.012 282.745L376.655 239.43C380.337 237.204 383.421 234.113 385.639 230.427C387.188 227.575 388.286 224.501 388.893 221.313C394.529 220.631 399.755 218.018 403.683 213.918C409.229 207.873 412.372 196.965 404.533 184.524L404.921 185.171L380.463 141.098L365.988 147.235C307.994 53.7464 197.626 39.4189 116.173 74.5628C42.2245 106.453 -29.2649 190.606 12.2015 322.807C16.6362 336.858 22.2005 350.527 28.8398 363.681C28.4237 367.82 28.6923 371.998 29.6348 376.049V376.271V376.493C31.8689 384.846 34.8768 392.972 38.6195 400.766C38.3862 408.244 41.1249 415.51 46.2361 420.973C54.3889 429.735 67.3114 433.174 81.6943 430.383L81.0102 430.493C100.052 427.813 112.438 422.23 118.89 418.532C147.397 438.48 184.685 447.409 217.777 441.9C239.352 438.332 256.785 428.959 268.801 414.798C275.177 415.188 281.575 415.002 287.917 414.243C297.447 413.649 306.815 411.494 315.648 407.865C328.425 422.527 345.397 432.91 364.268 437.611C387.451 443.73 413.721 443.305 438.716 436.613C443.168 436.91 447.623 436.064 451.657 434.154C477.908 428.146 483.787 425.631 487.669 422.322C487.727 422.289 487.777 422.245 487.817 422.193C497.283 415.796 500.333 403.798 499.963 394.887ZM434.131 420.973C411.946 426.685 388.191 427.018 368.188 421.731C350.033 416.924 328.551 406.405 316.627 379.987C315.893 378.63 315.275 377.214 314.779 375.753C314.779 375.753 320.879 375.864 324.873 375.532C343.36 415.186 391.093 422.562 431.968 412.099C433.671 411.861 435.303 411.262 436.756 410.343C437.338 408.042 437.593 405.671 437.514 403.299C437.514 402.153 436.516 377.75 431.968 361.5C431.792 360.346 431.321 359.257 430.6 358.339C429.926 358.057 429.217 357.87 428.492 357.784C426.79 357.793 425.093 357.973 423.427 358.32C398.211 364.31 359.221 369.301 328.422 372.407C328.422 372.407 326 372.777 321.841 372.962L318.513 373.054C310.289 373.088 302.077 372.433 293.962 371.095C293.962 371.095 179.121 352.404 179.602 352.404L185.739 343.993L296.329 362.147C313.17 364.68 321.009 363.459 321.212 363.423C351.013 361.759 406.086 353.587 419.415 350.038C419.415 350.038 426.607 348.337 427.531 347.413C428.104 346.821 426.625 341.423 426.625 341.423C426.625 341.423 421.079 323.583 418.454 316.78V316.928C418.454 316.65 417.215 312.879 415.977 312.306H415.071C415.071 312.306 413.481 312.602 411.54 313.045C385.658 317.778 338.165 324.396 310.286 326.079C312.708 325.931 299.009 326.559 288.379 325.82C273.22 324.97 256.415 321.217 239.703 303.062C239.518 302.878 221.012 285.259 213.581 277.181C212.784 276.099 212.45 274.746 212.651 273.418C212.852 272.091 213.572 270.897 214.653 270.1C215.447 269.46 216.445 269.129 217.464 269.166C218.483 269.203 219.454 269.607 220.199 270.303C223.471 274.666 242.18 294.004 251.405 302.637C261.665 310.642 269.023 314.802 283.332 316.428C289.1 317.01 294.895 317.276 300.692 317.223C319.548 317.704 388.246 309.311 408.452 305.318C409.851 305.156 411.228 304.84 412.557 304.375V303.987L412.667 303.136C413.228 302.399 413.974 301.825 414.83 301.472C415.867 300.989 417.02 300.809 418.155 300.953C419.291 301.097 420.362 301.559 421.245 302.286C435.647 328.852 449.882 378.175 446.591 415.445C446.587 416.323 446.356 417.186 445.918 417.947C445.48 418.709 444.852 419.344 444.095 419.789C443.035 420.216 441.898 420.419 440.756 420.384C439.613 420.349 438.491 420.077 437.459 419.586C437.459 419.586 437.662 419.771 434.131 420.973V420.973ZM402.943 365.512C404.792 365.16 412.593 363.441 412.593 363.441C418.461 371.698 425.688 378.899 433.964 384.738C434.316 387.825 434.593 395.719 434.593 395.719C413.888 385.588 402.943 365.567 402.943 365.567V365.512ZM330.086 380.856C329.383 379.691 328.681 378.489 328.034 377.269L327.054 375.328C328.644 375.143 329.55 374.995 329.55 374.995L334.726 374.459C333.346 376.725 331.794 378.882 330.086 380.911V380.856ZM172.687 352.626C171.606 352.562 170.557 352.232 169.635 351.664C168.712 351.096 167.944 350.309 167.4 349.372C167.153 348.87 167.055 348.307 167.117 347.75C167.179 347.193 167.399 346.665 167.751 346.23L182.134 324.304C183.04 326.042 190.269 330.386 190.269 330.386C187.237 334.86 176.422 350.962 176.403 350.962C176.004 351.565 175.445 352.045 174.789 352.349C174.133 352.652 173.405 352.768 172.687 352.682V352.626ZM211.103 278.53C213.259 281.309 215.646 283.9 218.239 286.276L207.147 303.746C205.668 304.911 202.544 303.746 200.603 301.898C200.159 301.473 198.015 299.254 199.309 297.72V297.627C199.66 297.276 202.045 293.301 211.103 278.586V278.53ZM228.759 318.61C224.802 315.948 209.403 305.669 209.403 305.669L211.029 304.079C217.981 308.553 227.113 314.543 231.069 317.538C238.131 322.917 234.323 329.369 234.323 329.369C235.026 325.524 233.269 321.66 228.759 318.61ZM207.351 306.889L227.501 320.385C230.533 322.566 233.51 326.282 231.735 331.311C231.476 326.615 225.634 322.88 225.634 322.88C225.634 322.88 203.967 310.124 197.331 305.965C193.522 303.58 193.911 300.271 195.907 298.57C195.611 303.746 203.579 307.924 207.351 306.889V306.889ZM196.129 307.758C202.821 311.955 216.927 320.496 220.994 322.751C222.928 323.643 224.696 324.856 226.226 326.338C231.291 331.144 230.33 335.914 227.853 339.278C225.061 342.976 219.681 345.435 215.208 342.458L209.125 338.761L206.925 337.43L188.087 325.746C186.249 324.87 184.833 323.301 184.149 321.383C183.942 320.206 184.001 318.998 184.321 317.846C184.641 316.695 185.214 315.629 185.998 314.728C189.991 309.182 191.932 305.891 192.783 304.393C193.615 305.765 194.762 306.918 196.129 307.758V307.758ZM192.727 331.699C201.62 337.005 214.246 344.843 214.246 344.843C222.935 350.389 229.627 342.421 231.753 339.611C233.399 337.411 238.446 330.608 238.279 324.822C238.113 319.035 233.768 316.114 229.886 313.563L211.824 301.713C213.488 298.995 216.187 294.632 220.291 288.014C228.407 296.111 237.725 305.003 237.817 305.096C242.715 310.461 248.385 315.066 254.64 318.758C255.99 319.534 257.321 320.237 258.652 320.902C262.239 331.884 266.158 341.608 267.896 348.781C266.528 340.425 264.032 331.495 261.61 322.252C270.398 325.851 279.757 327.854 289.248 328.168H290.45L291.023 329.443C287.603 338.52 281.262 348.263 273.016 354.216C273.016 354.678 273.016 355.159 273.016 355.64L265.622 354.456L259.817 353.532L257.007 353.088L185.943 341.756L192.727 331.699ZM405.79 349.964C402.805 350.766 399.774 351.384 396.713 351.813C394.864 348.393 383.532 320.496 383.532 320.496C384.881 320.329 392.535 319.072 392.535 319.072C396.401 329.58 400.825 339.873 405.79 349.909V349.964ZM408.027 349.261L404.589 341.386C416.069 341.571 424.333 341.386 424.333 341.386C425.719 346.47 420.987 346.655 420.987 346.655L408.027 349.261ZM343.711 330.774V332.198L388.579 339.907C389.448 342.366 392.646 349.631 392.646 349.631L343.803 341.312C343.803 341.811 343.803 342.329 343.803 342.846C343.534 348.28 342.697 353.67 341.308 358.93C339.145 359.171 336.963 359.374 334.763 359.596C337.825 348.641 338.556 337.167 336.908 325.912L343.138 325.247C343.378 327.04 343.563 328.889 343.711 330.719V330.774ZM318.217 361.075C314.796 361.584 311.324 361.664 307.883 361.315C304.814 355.492 301.413 347.561 292.724 328.519C296.169 328.918 299.649 328.918 303.095 328.519L318.217 361.075ZM245.249 226.119C245.196 227.739 245.545 229.346 246.266 230.797C247.227 232.738 249.187 237.6 249.187 237.6C249.519 237.286 244.805 243.146 242.162 247.306L226.281 273.354L222.011 268.658C222.011 268.658 220.162 266.477 218.48 266.477C226.78 252.981 234.36 241.001 236.967 237.138C239.524 233.299 242.289 229.602 245.249 226.064V226.119ZM341.807 193.804C343.025 193.62 344.269 193.897 345.294 194.581C346.32 195.264 347.054 196.306 347.353 197.501C347.612 199.35 346.669 201.513 343.119 202.086L341.455 202.419C319.678 206.763 295.016 211.663 274.384 220.093C269.489 221.672 264.895 224.065 260.796 227.173C260.796 227.173 258.781 222.81 258.06 221.627C256.914 219.593 256.748 219.372 255.787 218.836C259.616 216.432 263.665 214.396 267.877 212.753C283.129 206.264 314.594 198.149 341.807 193.749V193.804ZM331.935 164.576C330.659 168.662 333.081 174.984 333.081 174.984L338.941 191.382L335.872 191.955C335.872 191.955 332.046 181.418 329.642 174.134C327.794 168.588 329.143 165.907 329.143 165.907L331.935 164.576ZM334.356 163.43L337.425 161.821C337.425 161.821 337.684 161.655 337.666 161.711C337.556 162.082 337.512 162.47 337.536 162.857C337.521 164.514 337.908 166.151 338.664 167.626C340.513 172.526 349.959 192.177 351.05 195.043C356.596 209.259 342.38 211.903 340.901 205.617C355.968 204.471 349.849 188.702 341.308 190.92C338.054 182.878 335.466 174.818 335.466 174.818C335.466 174.818 332.138 166.018 334.356 163.467V163.43ZM386.268 194.377H386.397H386.49C388.339 194.636 389.355 196.947 389.189 198.87C389.189 199.905 388.468 202.253 384.918 202.253C381.72 201.55 373.327 200.755 369.02 200.404C368.757 197.391 368.014 194.439 366.82 191.66C373.345 192.2 379.837 193.089 386.268 194.322V194.377ZM350.939 208.575C350.939 208.575 354.027 206.468 354.193 204.231C354.193 204.231 361.384 204.231 365.045 204.231C365.045 204.249 362.346 209.315 350.939 208.52V208.575ZM253.254 221.516C253.999 221.494 254.74 221.646 255.417 221.96L297.16 314.395C293.72 314.538 290.275 314.315 286.882 313.729L248.244 229.17C247.818 228.484 247.592 227.694 247.592 226.887C247.592 226.08 247.818 225.289 248.244 224.603C248.76 223.708 249.485 222.951 250.358 222.397C251.23 221.844 252.224 221.51 253.254 221.424V221.516ZM256.008 252.482L257.654 256.179C250.259 270.211 250.259 285.851 253.18 300.715L252.44 300.141L249.556 297.405C242.864 290.972 233.935 281.895 227.927 275.498C236.375 261.855 244.565 248.877 244.565 248.895C246.765 245.438 249.094 241.889 250.37 239.966L256.008 252.482ZM259.096 259.304L283.776 313.711C274.139 312.838 264.925 309.34 257.136 303.598C254.252 288.661 253.439 273.539 259.096 259.211V259.304ZM469.848 412.746C465.004 414.114 449.309 418.292 449.309 418.292C449.855 415.068 450.084 411.799 449.993 408.531C480.293 402.023 451.527 399.287 451.527 399.287C458.219 401.358 458.035 403.743 458.035 403.743C455.306 403.635 452.603 403.175 449.993 402.375C450.159 400.526 449.66 392.78 449.66 392.78C457.517 396.2 458.793 395.22 466.945 397.05C475.098 398.881 471.216 402.375 471.216 402.375C466.945 407.68 451.194 409.917 451.194 409.917C477.557 406.479 475.228 399.287 475.228 399.287C485.987 406.165 475.357 411.193 469.885 412.672L469.848 412.746ZM465.633 349.409C465.633 349.409 461.695 351.406 443.541 354.66C443.541 354.66 442.062 349.003 441.378 346.1C441.378 346.1 456.722 342.902 462.712 340.665C462.712 340.665 462.601 338.668 459.643 338.724C459.643 338.724 444.058 342.662 440.453 343.013L439.603 340.61C439.603 340.61 452.951 338.04 457.406 337.005C457.406 337.005 466.834 333.751 468.886 340.961C468.923 340.942 470.938 347.098 465.67 349.335L465.633 349.409ZM482.271 402.874C482.271 400.803 479.073 396.976 473.601 395.849C473.683 394.291 473.683 392.73 473.601 391.172C472.214 377.214 467.204 351.868 467.204 351.868C474.969 349.354 474.285 333.474 461.048 333.566C459.077 324.757 456.457 316.106 453.209 307.684C460.419 303.746 457.036 297.11 453.099 295.908C453.099 295.908 460.308 294.373 463.618 306.815C475.542 340.536 484.896 386.79 482.216 402.8L482.271 402.874ZM453.93 301.306C453.987 302.297 453.672 303.273 453.046 304.042C452.42 304.812 451.529 305.32 450.547 305.466L449.42 305.725C446.61 306.593 440.99 307.924 435.369 308.978C433.251 309.455 431.11 309.825 428.954 310.087C428.215 308.461 427.697 306.778 425.571 302.693C431.746 301.62 439.677 300.031 445.186 298.422C446.804 298.012 448.447 297.703 450.104 297.498C451.066 297.59 451.967 298.013 452.655 298.693C453.342 299.374 453.773 300.27 453.875 301.232L453.93 301.306ZM423.482 300.031C422.428 299.168 421.141 298.641 419.785 298.515V298.515C425.862 298.476 431.934 298.13 437.976 297.479C435.406 298.422 423.427 299.957 423.427 299.957L423.482 300.031ZM410.135 301.879C403.96 303.432 389.707 304.985 389.707 304.985L386.786 298.293C395.423 299.534 404.171 299.82 412.871 299.143C412.162 299.2 411.494 299.502 410.985 299.998C410.475 300.494 410.155 301.153 410.079 301.861L410.135 301.879ZM375.841 209.795C376.43 214.638 375.656 219.549 373.604 223.975C372.31 226.497 370.413 228.661 368.081 230.274C365.749 231.886 363.055 232.898 360.238 233.218C360.072 233.218 359.684 233.218 359.24 233.218L358.556 233.311C358.038 233.311 357.539 233.311 357.058 233.459C364.12 250.226 387.359 305.281 387.359 305.281C382.903 306.076 377.986 306.409 377.986 306.409L348.628 237.563C348.075 238.128 347.58 238.748 347.149 239.412L346.262 240.447C341.702 246.61 338.656 253.76 337.37 261.319C337.259 261.836 337.074 262.631 336.889 263.685C344.837 276.167 356.026 286.256 369.26 292.876L373.863 304.19C355.376 298.81 339.884 282.006 335.558 276.996C335.558 277.458 335.558 277.92 335.558 278.382C335.48 286.633 336.355 294.865 338.165 302.914C339.052 305.669 339.829 308.461 340.494 311.234L334.171 311.881C332.826 306.595 331.089 301.417 328.977 296.389C318.513 271.616 289.951 282.949 292.003 297.849L267.822 244.459C272.562 239.32 277.957 234.826 283.868 231.092C280.108 232.821 276.6 235.054 273.442 237.729C271.258 239.407 269.183 241.222 267.23 243.164L265.733 240.003L261.277 230.187C265.669 227.143 270.396 224.612 275.364 222.644C291.226 216.21 309.565 211.81 327.128 208.132L330.049 207.54C330.585 216.284 326.148 219.63 318.531 221.202C313.558 222.237 309.51 222.404 307.439 223.051L312.172 223.217C316.512 223.065 320.803 222.242 324.891 220.777C329.661 218.928 333.247 215.804 331.713 207.207L334.153 206.69C335.447 214.879 334.245 222.773 318.384 224.308C321.101 226.156 345.781 221.609 360.645 225.01C361.015 225.177 367.245 227.321 360.127 230.427C373.9 227.358 374.677 213.622 372.051 203.417H372.625C374.813 203.581 376.991 203.859 379.15 204.249C379.15 204.249 379.15 204.249 379.15 204.249C380.463 204.397 382.071 204.582 383.735 204.804C393.995 205.821 392.979 193.712 387.654 192.122C385.637 191.466 383.564 190.996 381.461 190.717L380.019 190.55L367.208 161.988L374.307 158.697L392.628 191.771C401.15 205.285 387.081 210.849 379.261 206.782C377.863 207.463 376.666 208.495 375.786 209.777L375.841 209.795ZM286.253 400.674C278.442 401.655 270.531 401.524 262.756 400.286C236.542 440.366 165.57 437.666 122.255 403.817C121.441 403.207 120.628 402.615 119.777 401.968C116.838 404.242 104.027 413.06 79.5498 416.905C58.9922 420.862 50.5066 407.514 52.9654 398.418C46.8832 385.015 45.2009 380.357 43.2043 372.814C42.2799 369.049 42.2799 365.117 43.2043 361.352C36.0353 347.702 30.0781 333.449 25.4013 318.758C-48.5468 82.6786 258.929 -16.19 358.759 162.21C360.7 162.376 361.884 162.838 362.457 164.058L365.193 162.949L377.228 190.144C375.749 189.848 371.682 189.497 370.628 189.423C370.62 189.472 370.62 189.522 370.628 189.571L368.576 189.367H367.596C364.971 181.307 361.551 171.047 359.221 165.057C357.797 164.83 356.357 164.713 354.914 164.706C354.952 164.763 354.983 164.825 355.006 164.89C356.855 168.292 362.401 185.503 364.25 190.181C365.691 193.385 366.501 196.837 366.635 200.349L354.674 200.127C354.507 196.633 351.18 190.07 351.18 190.07L346.743 181.085L345.523 178.515L340.901 168.81C340.139 167.102 339.617 165.298 339.348 163.448C338.534 157.181 344.728 157.181 344.894 157.181C346.602 157.191 348.279 157.646 349.757 158.502C351.236 159.358 352.465 160.585 353.324 162.062H354.969C352.49 157.295 349.724 152.684 346.687 148.252C300.229 82.013 223.009 62.4353 154.977 78.9627C241.182 66.3545 306.922 103.439 339.736 158.882C337 160.232 332.452 162.58 330.345 163.652C329.383 163.652 325.871 163.559 324.688 163.652C322.636 163.818 320.713 163.911 322.118 168.791C323.153 172.378 323.541 173.228 324.355 175.465C325.316 178.146 328.441 186.206 330.733 193.065L328.311 193.527C327.904 192.307 327.442 191.031 326.906 189.7C324.244 182.878 321.009 174.023 320.066 171.01C319.253 168.735 319.138 166.27 319.733 163.929C319.733 163.929 316.479 166.499 319.382 173.413L326.777 193.749L323.8 194.34C301.468 198.814 279.598 204.73 267.322 209.869C261.696 211.984 256.404 214.898 251.608 218.521C251.427 218.643 251.295 218.827 251.239 219.039C249.293 219.628 247.589 220.827 246.377 222.459C244.975 223.526 243.647 224.688 242.402 225.935C239.832 228.929 237.577 231.481 234.674 235.529C232.16 239.227 223.102 253.61 215.023 266.698C214.3 266.966 213.62 267.34 213.008 267.808C211.881 268.692 211.011 269.86 210.484 271.192C209.958 272.524 209.795 273.972 210.013 275.387C203.468 286.017 199.623 292.174 198.015 294.725C196.883 294.831 195.792 295.201 194.829 295.804C193.866 296.408 193.058 297.228 192.468 298.2C189.545 303.619 186.304 308.859 182.763 313.896C181.988 314.91 181.439 316.078 181.152 317.321C180.866 318.564 180.847 319.855 181.099 321.106L180.489 322.326L165.367 344.862C164.734 345.684 164.345 346.668 164.244 347.7C164.142 348.733 164.333 349.774 164.793 350.703C165.542 352.086 166.631 353.255 167.958 354.099C169.284 354.943 170.804 355.435 172.373 355.529C173.986 355.671 175.596 355.239 176.921 354.308L257.321 367.712L261.24 368.359L267.526 369.412L272.628 370.263C271.995 378.726 269.748 386.991 266.01 394.61L267.415 394.795C289.599 396.644 305.424 392.65 316.369 385.237C317.293 387.086 318.217 388.768 319.345 390.451C310.748 396.145 299.823 399.786 286.253 400.674ZM486.098 423.45L485.895 423.579C486.116 423.45 486.301 423.265 486.523 423.136L486.098 423.45Z" fill="white"/>
<path d="M238.76 417.589C247.058 413.374 254.151 407.121 259.373 399.417C261.707 396.175 263.574 392.622 264.919 388.861C259.896 401.245 250.621 411.432 238.76 417.589Z" fill="white"/>
<path d="M227.926 275.369C233.935 281.765 242.864 290.842 249.556 297.276C247.835 287.792 247.873 278.073 249.667 268.602C250.903 262.895 253.043 257.421 256.008 252.389L250.296 239.837C249.02 241.685 246.691 245.383 244.491 248.766C244.491 248.747 236.375 261.725 227.926 275.369Z" fill="#FF3C00"/>
<path d="M249.464 322.658C254.117 332.508 257.574 342.879 259.761 353.55L265.566 354.475C264.956 351.48 264.309 348.781 263.717 346.451C262.664 341.608 258.356 331.31 254.474 318.721C248.221 315.01 242.557 310.387 237.669 305.003C237.669 304.911 228.259 296.019 220.144 287.921C216.039 294.54 213.34 298.903 211.677 301.62L229.738 313.47C233.621 316.022 237.947 319.017 238.131 324.729C238.316 330.442 233.251 337.356 231.606 339.519C229.48 342.329 222.787 350.297 214.098 344.75C214.098 344.75 201.472 336.912 192.579 331.606L185.739 341.737L256.803 353.07C255.417 341.867 251.701 331.699 249.464 322.658Z" fill="#FF3C00"/>
<path d="M279.099 230.02C289.47 224.474 295.867 221.368 312.375 219.261L316.48 218.706C319.271 218.281 324.614 217.172 326.148 214.398C327.082 212.456 327.466 210.295 327.258 208.15C309.713 211.847 291.374 216.229 275.494 222.662C270.526 224.63 265.799 227.161 261.407 230.205L265.733 240.003C269.191 236.662 273.025 233.734 277.158 231.277C277.823 230.815 279.099 230.02 279.099 230.02Z" fill="#FF3C00"/>
<path d="M316.313 163.689C316.815 162.923 317.494 162.289 318.291 161.84C291.115 115.844 225.985 68.2955 141.407 82.6969C59.4913 108.967 -4.43681 188.812 23.9777 302.693C35.8464 345.878 49.7116 368.784 64.7786 390.247C64.7786 390.247 64.0946 400.674 82.0824 395.239C98.351 390.302 108.279 389.933 125.287 402.633C154.866 424.707 205.909 434.727 238.76 417.589C250.576 411.403 259.803 401.212 264.79 388.842C266.933 382.618 267.88 376.044 267.581 369.468L261.296 368.414C259.891 395.275 233.251 421.157 185.61 418.181C165.736 417.441 144.55 407.791 131.905 400.896C126.082 396.995 109.721 387.788 101.808 386.106C108.648 386.476 125.841 395.442 132.922 399.583C147.711 407.163 168.158 414.373 185.61 415.149C217.426 418.144 253.513 401.838 257.376 367.822L176.976 354.419C175.652 355.35 174.041 355.782 172.429 355.639C170.859 355.546 169.339 355.054 168.013 354.21C166.687 353.365 165.598 352.197 164.849 350.814C164.388 349.884 164.198 348.844 164.299 347.811C164.4 346.779 164.789 345.795 165.422 344.972L180.452 322.455L181.062 321.235C180.81 319.984 180.829 318.694 181.115 317.45C181.402 316.207 181.951 315.039 182.726 314.025C186.267 308.989 189.508 303.748 192.431 298.33C193.021 297.358 193.829 296.537 194.792 295.934C195.755 295.33 196.846 294.961 197.978 294.854C199.586 292.303 203.431 286.147 209.976 275.517C209.758 274.101 209.921 272.653 210.447 271.321C210.974 269.99 211.844 268.822 212.971 267.937C213.583 267.469 214.263 267.095 214.986 266.828C223.212 253.665 232.179 239.264 234.693 235.566C237.595 231.591 239.851 228.966 242.42 225.971C243.665 224.724 244.993 223.563 246.395 222.496C247.607 220.864 249.312 219.665 251.257 219.076C251.314 218.864 251.445 218.68 251.627 218.558C256.422 214.935 261.715 212.021 267.341 209.906C279.616 204.767 301.486 198.814 323.819 194.377L317.293 175.576C317.034 174.966 313.595 167.922 316.313 163.689ZM215.818 362.683C217.998 362.686 220.11 363.442 221.798 364.823C223.485 366.203 224.644 368.124 225.079 370.261C225.514 372.398 225.197 374.619 224.184 376.549C223.17 378.48 221.521 380.001 219.515 380.856C218.828 381.593 217.969 382.148 217.014 382.471C216.06 382.794 215.04 382.875 214.046 382.707C213.053 382.538 212.117 382.125 211.322 381.505C210.528 380.885 209.9 380.078 209.495 379.155C208.503 378.274 207.71 377.192 207.168 375.98C206.626 374.769 206.348 373.457 206.352 372.13C206.362 369.624 207.363 367.224 209.136 365.454C210.91 363.684 213.312 362.688 215.818 362.683V362.683ZM141.352 392.595C139.902 393.716 138.069 394.221 136.249 394C134.123 395.331 130.814 394.573 128.466 392.151C127.455 391.244 126.739 390.055 126.409 388.737C126.08 387.419 126.152 386.033 126.618 384.756C126.313 383.226 126.427 381.642 126.948 380.172C127.469 378.701 128.376 377.398 129.576 376.4C133.144 373.886 138.579 375.439 141.703 379.857C144.827 384.276 144.772 389.766 141.389 392.595H141.352ZM188.087 367.157C172.225 383.943 140.779 383.795 122.902 360.927C153.054 389.008 181.247 370.521 188.087 367.157ZM159.414 347.191C157.453 347.843 155.397 348.161 153.331 348.134C150.341 348.058 147.397 347.387 144.67 346.158C141.943 344.93 139.488 343.169 137.451 340.979C129.039 332.179 128.485 318.573 136.231 310.697C137.965 308.918 140.042 307.509 142.336 306.555C144.63 305.602 147.094 305.124 149.579 305.151C152.569 305.226 155.513 305.898 158.24 307.127C160.967 308.355 163.422 310.116 165.459 312.306C169.607 316.613 171.988 322.319 172.133 328.297L159.414 347.191Z" fill="#FF3C00"/>
<path d="M256.951 353.107L259.761 353.55C257.574 342.879 254.117 332.508 249.464 322.658C251.701 331.699 255.417 341.866 256.951 353.107Z" fill="#311D00"/>
<path d="M185.517 415.094C168.066 414.373 147.545 407.107 132.829 399.528C125.656 395.386 108.556 386.42 101.716 386.051C109.591 387.788 125.989 396.995 131.813 400.84C144.458 407.736 165.644 417.386 185.517 418.125C233.159 421.102 259.798 395.22 261.203 368.358L257.284 367.711C253.42 401.783 217.334 418.088 185.517 415.094Z" fill="#311D00"/>
<path d="M149.486 305.225C147.001 305.198 144.538 305.676 142.243 306.629C139.949 307.583 137.872 308.992 136.138 310.771C128.392 318.647 128.947 332.253 137.358 341.053C139.396 343.243 141.85 345.004 144.577 346.232C147.304 347.461 150.249 348.132 153.239 348.208C155.305 348.235 157.36 347.917 159.321 347.265L172.04 328.445C171.896 322.467 169.514 316.761 165.366 312.454C163.335 310.25 160.884 308.476 158.157 307.234C155.429 305.993 152.481 305.31 149.486 305.225V305.225Z" fill="#311D00"/>
<path d="M122.809 360.927C140.686 383.832 172.132 383.943 187.994 367.157C181.247 370.522 153.054 389.009 122.809 360.927Z" fill="#311D00"/>
<path d="M209.513 379.155C209.918 380.078 210.546 380.885 211.341 381.505C212.135 382.125 213.071 382.538 214.065 382.707C215.058 382.875 216.078 382.794 217.033 382.471C217.987 382.148 218.847 381.593 219.533 380.856C221.108 380.188 222.471 379.106 223.48 377.725C224.488 376.344 225.104 374.715 225.261 373.012C225.418 371.31 225.111 369.596 224.373 368.054C223.634 366.511 222.491 365.198 221.066 364.253C219.641 363.308 217.986 362.767 216.278 362.687C214.569 362.608 212.872 362.992 211.364 363.8C209.857 364.608 208.597 365.809 207.718 367.276C206.838 368.742 206.373 370.42 206.371 372.13C206.366 373.457 206.644 374.769 207.186 375.98C207.728 377.192 208.521 378.274 209.513 379.155V379.155ZM215.06 381.706C214.025 381.721 213.01 381.427 212.143 380.864C211.276 380.3 210.597 379.491 210.191 378.54C209.785 377.588 209.671 376.538 209.864 375.522C210.056 374.506 210.547 373.57 211.273 372.833C211.999 372.097 212.928 371.593 213.941 371.386C214.954 371.178 216.006 371.277 216.963 371.67C217.92 372.062 218.739 372.73 219.315 373.589C219.891 374.448 220.199 375.459 220.199 376.493C220.204 377.174 220.074 377.85 219.817 378.481C219.561 379.112 219.182 379.686 218.702 380.17C218.223 380.655 217.653 381.04 217.025 381.303C216.397 381.567 215.722 381.704 215.041 381.706H215.06ZM219.145 371.242C218.27 370.433 217.167 369.913 215.986 369.754C214.804 369.595 213.603 369.805 212.545 370.355C211.695 370.891 210.697 370.189 211.898 369.079C212.478 368.593 213.15 368.229 213.875 368.012C214.6 367.795 215.362 367.729 216.114 367.817C216.865 367.905 217.591 368.147 218.246 368.526C218.901 368.905 219.471 369.414 219.922 370.022C220.827 371.409 219.848 372.37 219.127 371.242H219.145ZM216.095 364.384C217.607 364.421 219.076 364.901 220.319 365.764C221.562 366.627 222.525 367.835 223.089 369.238C223.654 370.642 223.794 372.181 223.494 373.664C223.194 375.147 222.466 376.509 221.401 377.583C223.637 372.795 221.807 366.695 215.854 366.491C214.729 366.449 213.61 366.674 212.589 367.149C211.568 367.625 210.675 368.336 209.983 369.224C209.291 370.113 208.821 371.153 208.611 372.26C208.4 373.366 208.456 374.506 208.774 375.587C206.759 373.59 207.461 364.421 216.076 364.384H216.095Z" fill="#311D00"/>
<path d="M211.88 369.079C210.771 370.189 211.677 370.928 212.527 370.355C213.585 369.805 214.786 369.595 215.967 369.754C217.149 369.913 218.252 370.433 219.127 371.242C219.848 372.352 220.828 371.409 219.903 370.022C219.453 369.414 218.882 368.905 218.227 368.526C217.573 368.147 216.847 367.906 216.095 367.817C215.344 367.729 214.582 367.795 213.857 368.012C213.132 368.229 212.459 368.593 211.88 369.079Z" fill="white"/>
<path d="M215.91 366.436C221.789 366.695 223.619 372.795 221.456 377.528C222.522 376.454 223.25 375.091 223.55 373.608C223.85 372.125 223.709 370.587 223.145 369.183C222.581 367.779 221.617 366.571 220.374 365.709C219.131 364.846 217.663 364.366 216.15 364.328C207.535 364.328 206.907 373.572 208.904 375.421C208.609 374.353 208.568 373.232 208.785 372.146C209.001 371.061 209.468 370.04 210.149 369.167C210.83 368.294 211.705 367.593 212.706 367.119C213.706 366.644 214.803 366.41 215.91 366.436Z" fill="white"/>
<path d="M220.181 376.493C220.166 375.48 219.852 374.493 219.279 373.658C218.705 372.822 217.898 372.175 216.957 371.798C216.017 371.42 214.986 371.329 213.994 371.535C213.002 371.742 212.093 372.237 211.382 372.959C210.67 373.68 210.188 374.596 209.996 375.591C209.803 376.586 209.909 377.615 210.3 378.55C210.692 379.485 211.35 380.283 212.194 380.845C213.037 381.406 214.028 381.706 215.041 381.706C215.721 381.701 216.393 381.563 217.019 381.298C217.645 381.033 218.213 380.648 218.691 380.164C219.168 379.68 219.545 379.106 219.801 378.476C220.056 377.847 220.185 377.173 220.181 376.493ZM215.004 380.56C214.188 380.56 213.39 380.318 212.712 379.864C212.034 379.41 211.505 378.765 211.194 378.011C210.882 377.256 210.802 376.426 210.962 375.626C211.123 374.826 211.517 374.091 212.096 373.516C212.674 372.94 213.41 372.549 214.211 372.392C215.012 372.235 215.842 372.319 216.595 372.634C217.348 372.949 217.99 373.48 218.441 374.16C218.892 374.841 219.131 375.64 219.127 376.456C219.127 376.996 219.02 377.531 218.813 378.031C218.605 378.53 218.301 378.983 217.918 379.364C217.535 379.746 217.081 380.048 216.58 380.253C216.08 380.458 215.545 380.562 215.004 380.56V380.56Z" fill="white"/>
<path d="M215.004 372.37C214.189 372.37 213.391 372.612 212.714 373.065C212.036 373.518 211.507 374.162 211.195 374.915C210.883 375.668 210.801 376.497 210.961 377.297C211.12 378.097 211.512 378.831 212.089 379.408C212.665 379.984 213.4 380.377 214.2 380.536C214.999 380.695 215.828 380.614 216.582 380.302C217.335 379.989 217.979 379.461 218.432 378.783C218.885 378.105 219.127 377.308 219.127 376.493C219.127 375.399 218.692 374.351 217.919 373.578C217.146 372.804 216.097 372.37 215.004 372.37V372.37ZM211.954 376.622C212.065 376.104 212.323 376.363 212.434 376.77C212.723 377.168 213.091 377.5 213.517 377.745C213.942 377.99 214.414 378.143 214.903 378.194C215.391 378.245 215.885 378.192 216.351 378.039C216.818 377.886 217.247 377.636 217.611 377.306C218.11 376.604 218.091 377.565 218.091 377.565C217.828 378.242 217.34 378.808 216.71 379.169C216.079 379.53 215.345 379.665 214.627 379.55C213.91 379.436 213.253 379.079 212.767 378.54C212.281 378 211.994 377.31 211.954 376.585V376.622Z" fill="#311D00"/>
<path d="M217.666 377.269C217.303 377.599 216.874 377.849 216.407 378.002C215.94 378.155 215.447 378.208 214.958 378.157C214.47 378.106 213.998 377.953 213.572 377.708C213.147 377.463 212.778 377.13 212.49 376.733C212.379 376.326 212.12 376.067 212.009 376.585C212.056 377.308 212.349 377.993 212.838 378.526C213.327 379.06 213.984 379.411 214.7 379.521C215.415 379.631 216.147 379.494 216.774 379.131C217.401 378.769 217.885 378.203 218.147 377.528C218.147 377.528 218.11 376.567 217.666 377.269Z" fill="white"/>
<path d="M129.686 376.327C128.487 377.324 127.58 378.627 127.059 380.098C126.538 381.569 126.424 383.153 126.729 384.683C126.263 385.959 126.191 387.345 126.52 388.663C126.85 389.981 127.566 391.17 128.577 392.077C130.925 394.555 134.234 395.313 136.36 393.926C138.18 394.147 140.013 393.642 141.463 392.521C144.846 389.693 145.012 384.147 141.888 379.71C138.764 375.273 133.254 373.812 129.686 376.327ZM129.113 391.356C126.895 389.027 126.525 385.81 128.244 384.146C129.964 382.483 133.181 383.037 135.399 385.367C137.617 387.696 137.987 390.913 136.249 392.577C134.512 394.24 131.313 393.686 129.113 391.356ZM137.58 385.81C136.774 384.312 135.464 383.147 133.883 382.52C132.737 382.298 133.162 380.431 134.549 380.911C135.999 381.572 137.267 382.574 138.246 383.832C139.485 385.829 138.172 386.864 137.58 385.718V385.81ZM139.152 392.281C145.456 384.073 133.181 374.496 128.318 382.094C132.367 369.597 148.673 385.182 139.152 392.188V392.281Z" fill="#311D00"/>
<path d="M134.475 380.819C133.088 380.338 132.626 382.205 133.809 382.427C135.39 383.055 136.7 384.22 137.507 385.718C138.061 386.864 139.355 385.829 138.135 383.74C137.167 382.487 135.911 381.485 134.475 380.819V380.819Z" fill="white"/>
<path d="M128.318 382.002C133.18 374.404 145.456 383.98 139.152 392.188C148.673 385.182 132.367 369.597 128.318 382.002Z" fill="white"/>
<path d="M135.399 385.311C133.181 382.982 130.001 382.446 128.245 384.091C126.488 385.736 126.895 388.971 129.114 391.301C131.332 393.63 134.512 394.185 136.25 392.521C137.987 390.857 137.599 387.696 135.399 385.311ZM135.399 392.022C133.957 393.094 131.517 392.207 129.724 390.561C128.863 389.889 128.301 388.906 128.16 387.823C128.018 386.741 128.307 385.646 128.966 384.775C130.463 383.351 133.088 384.239 134.678 386.05C135.88 387.585 136.989 390.857 135.325 392.077L135.399 392.022Z" fill="white"/>
<path d="M128.929 384.83C128.27 385.701 127.981 386.796 128.123 387.879C128.264 388.961 128.826 389.945 129.687 390.617C131.535 392.262 133.92 393.15 135.362 392.077C136.804 391.005 135.917 387.585 134.641 386.106C133.014 384.294 130.389 383.462 128.929 384.83ZM134.142 391.356C131.184 391.652 128.596 388.047 129.631 386.457C129.631 386.457 130.445 385.348 130.593 386.457C130.831 387.414 131.314 388.292 131.995 389.005C132.675 389.719 133.53 390.242 134.475 390.524C134.863 390.561 134.992 391.208 134.105 391.356H134.142Z" fill="#311D00"/>
<path d="M130.555 386.383C130.408 385.348 129.594 386.383 129.594 386.383C128.503 387.973 131.147 391.578 134.105 391.282C134.992 391.134 134.863 390.487 134.438 390.376C133.502 390.101 132.653 389.588 131.973 388.889C131.293 388.189 130.805 387.326 130.555 386.383V386.383Z" fill="white"/>
<path d="M115.729 401.672C116.32 401.265 116.93 400.822 117.393 400.47C109.295 395.313 99.2383 391.929 82.9143 397.309L82.1748 397.55C86.3528 396.586 90.6249 396.09 94.9124 396.071C100.77 396.229 106.493 397.863 111.551 400.822L108.519 402.467C98.1794 407.598 86.9653 410.734 75.464 411.711C68.7717 412.191 70.0658 408.272 74.4657 406.054C75.9165 405.261 77.1588 404.135 78.0907 402.769C79.0226 401.404 79.6176 399.837 79.827 398.197C79.0875 398.585 79.0875 398.418 77.9782 398.622H77.8488C76.3884 409.104 55.8677 408.032 58.1417 393.741C58.1417 393.741 55.1837 387.677 53.4829 384.146C53.4829 384.294 53.0577 381.946 53.2981 381.891C53.5384 381.836 58.3081 390.025 60.3786 392.613C57.6056 402.356 71.8591 406.423 75.6859 399.084C63.1332 401.432 62.6525 394.998 62.8374 392.854C62.7294 392.521 62.6429 392.181 62.5785 391.837C60.3971 389.6 53.3351 380.153 45.1823 365.308C44.0916 373.96 53.8897 393.982 54.7031 395.941L55.535 398.012C52.5771 406.201 61.0811 416.942 76.4068 414.484C91.5847 413.171 108.593 406.849 115.729 401.672Z" fill="white"/>
<path d="M327.054 375.384L328.034 377.325C328.681 378.545 329.383 379.746 330.086 380.911C331.792 378.899 333.343 376.761 334.726 374.515L329.549 375.051C329.549 375.051 328.588 375.199 327.054 375.384Z" fill="#311D00"/>
<path d="M334.8 359.54C337 359.318 339.181 359.115 341.344 358.875C342.734 353.615 343.57 348.224 343.84 342.791C343.84 342.273 343.84 341.756 343.84 341.257L392.683 349.576C392.683 349.576 389.484 342.31 388.616 339.852L343.748 332.142V330.719C343.6 328.87 343.433 327.022 343.211 325.173L336.981 325.838C338.62 337.101 337.877 348.583 334.8 359.54V359.54Z" fill="#311D00"/>
<path d="M249.556 297.276L252.44 300.012L253.18 300.585C250.296 285.795 250.185 270.081 257.654 256.05L256.008 252.352C253.043 257.384 250.903 262.858 249.667 268.565C247.868 278.048 247.831 287.78 249.556 297.276V297.276Z" fill="#311D00"/>
<path d="M265.566 354.475L272.961 355.658C272.961 355.177 272.961 354.697 272.961 354.234C281.206 348.282 287.547 338.539 290.967 329.462L290.394 328.186H289.193C279.702 327.872 270.343 325.869 261.555 322.27C263.976 331.514 266.472 340.443 267.84 348.799C266.139 341.626 262.294 331.902 258.597 320.921C257.266 320.255 255.935 319.553 254.585 318.776C258.412 331.366 262.719 341.663 263.828 346.507C264.309 348.781 264.956 351.48 265.566 354.475Z" fill="#311D00"/>
<path d="M331.879 286.147C328.921 272.374 332.046 246.788 342.103 239.485C327.757 241.223 323.763 277.18 331.879 286.147Z" fill="white"/>
<path d="M283.776 313.618L259.096 259.211C253.439 273.538 254.252 288.661 257.136 303.58C264.933 309.295 274.146 312.767 283.776 313.618Z" fill="#311D00"/>
<path d="M379.354 206.856C387.118 210.923 401.242 205.358 392.72 191.844L374.399 158.771L367.3 162.062L380.112 190.624L381.554 190.791C383.656 191.069 385.729 191.54 387.747 192.196C393.145 193.748 394.088 205.894 383.828 204.878C382.164 204.656 380.555 204.471 379.243 204.323C377.083 203.933 374.905 203.655 372.717 203.491H372.144C374.769 213.696 373.992 227.432 360.22 230.501C367.337 227.395 361.107 225.25 360.737 225.084C345.948 221.682 321.193 226.249 318.476 224.381C334.338 222.847 335.539 214.953 334.245 206.763L331.805 207.281C333.339 215.877 329.753 219.076 324.983 220.85C320.898 222.334 316.607 223.176 312.264 223.346L307.532 223.18C309.584 222.496 313.632 222.329 318.624 221.331C326.24 219.76 330.677 216.414 330.141 207.669L327.22 208.261C327.428 210.406 327.045 212.567 326.111 214.509C324.577 217.282 319.234 218.392 316.442 218.817L312.338 219.371C295.903 221.479 289.507 224.529 279.062 230.131C279.062 230.131 277.786 230.944 277.213 231.407C273.067 233.819 269.215 236.704 265.732 240.003L267.193 243.238C269.146 241.296 271.22 239.481 273.405 237.803C276.563 235.128 280.071 232.895 283.831 231.166C277.92 234.9 272.525 239.394 267.784 244.532L291.966 297.923C289.969 283.022 318.531 271.69 328.94 296.462C331.052 301.491 332.788 306.669 334.134 311.955L340.457 311.307C339.791 308.534 339.015 305.761 338.128 302.988C336.318 294.938 335.443 286.707 335.521 278.456C335.521 277.994 335.521 277.532 335.521 277.07C339.847 282.098 355.321 298.884 373.826 304.264L369.26 292.876C355.969 286.255 344.733 276.138 336.76 263.611C336.944 262.557 337.129 261.762 337.24 261.245C338.526 253.686 341.572 246.536 346.132 240.373L347.02 239.337C347.45 238.674 347.946 238.054 348.499 237.489L377.856 306.334C377.856 306.334 382.774 306.002 387.229 305.207C387.229 305.207 363.991 250.152 356.929 233.385C357.41 233.385 357.909 233.274 358.426 233.237L359.11 233.144C359.554 233.144 359.942 233.144 360.109 233.144C362.926 232.824 365.62 231.812 367.951 230.199C370.283 228.587 372.181 226.423 373.475 223.901C375.526 219.475 376.301 214.564 375.712 209.721C376.654 208.464 377.91 207.476 379.354 206.856ZM331.879 286.147C323.763 277.18 327.756 241.223 342.102 239.485C332.045 246.788 328.921 272.374 331.879 286.147Z" fill="#311D00"/>
<path d="M209.365 334.25C209.637 334.967 209.958 335.666 210.327 336.339V336.339C210.954 337.45 211.859 338.38 212.952 339.038C220.883 343.752 225.264 337.744 225.301 337.688C225.338 337.633 228.999 332.919 223.674 327.742C222.616 326.831 221.384 326.144 220.053 325.721C218.721 325.299 217.318 325.15 215.928 325.284C215.395 323.255 214.171 321.477 212.466 320.255C210.762 319.033 208.684 318.445 206.592 318.591H206.574C201.305 318.943 200.066 321.79 199.475 323.435C199.099 324.541 198.961 325.713 199.069 326.876C199.177 328.039 199.53 329.165 200.103 330.183C201.029 331.743 202.42 332.974 204.081 333.703C205.742 334.432 207.59 334.624 209.365 334.25V334.25ZM216.316 326.633C222.232 326.448 226.873 332.383 223.896 336.746L222.805 336.912C217.647 337.596 214.727 335.544 213.876 330.922C215.192 329.844 216.062 328.315 216.316 326.633V326.633ZM209.384 320.292C210.76 320.656 211.983 321.453 212.871 322.564C213.76 323.676 214.268 325.044 214.32 326.467H214.653C214.412 328.315 212.379 331.015 208.238 330.386C208.05 329.53 207.957 328.656 207.96 327.779C208.677 328.036 209.437 328.149 210.197 328.112C210.203 327.71 210.234 327.309 210.29 326.91C209.474 326.817 208.68 326.585 207.942 326.226C207.965 324.164 208.458 322.135 209.384 320.292V320.292ZM202.525 321.568C203.101 321.016 203.788 320.596 204.541 320.334C205.294 320.072 206.095 319.976 206.888 320.052C206.057 321.684 205.62 323.489 205.612 325.321C205.206 324.969 204.891 324.969 204.485 324.526V325.968C204.744 326.43 205.169 326.559 205.686 326.91C205.658 327.937 205.764 328.962 206.001 329.961C205.723 329.961 205.575 329.647 205.28 329.517C201.157 327.206 202.525 321.568 202.525 321.568ZM201.009 323.416C200.325 331.976 208.145 333.233 212.527 331.606C213.469 338.539 219.515 338.724 222.417 338.261C221.277 338.878 220.007 339.216 218.711 339.247C217.415 339.278 216.13 339.002 214.961 338.441C213.793 337.88 212.773 337.051 211.987 336.02C211.201 334.989 210.67 333.787 210.438 332.512C204.91 334.139 198.661 329.702 201.028 323.379L201.009 323.416Z" fill="white"/>
<path d="M348.684 171.601C347.437 170.664 346.427 169.45 345.734 168.053C345.041 166.657 344.683 165.118 344.691 163.559C348.758 163.615 349.959 169.567 348.684 171.601Z" fill="#311D00"/>
<path d="M352.917 182.712C350.853 180.728 349.651 178.013 349.571 175.151C350.356 175.326 351.089 175.683 351.711 176.193C352.333 176.703 352.827 177.351 353.152 178.087C353.478 178.822 353.626 179.624 353.585 180.427C353.544 181.231 353.316 182.013 352.917 182.712Z" fill="#311D00"/>
<path d="M335.466 174.762C335.466 174.762 338.054 182.823 341.307 190.865C349.848 188.646 355.968 204.416 340.901 205.562C342.38 211.847 356.541 209.259 351.05 194.987C349.959 192.122 340.476 172.47 338.664 167.571C337.908 166.095 337.521 164.459 337.536 162.801C337.512 162.415 337.556 162.027 337.666 161.655C337.666 161.655 337.425 161.766 337.425 161.766L334.356 163.374C332.138 166.018 335.466 174.762 335.466 174.762Z" fill="#311D00"/>
<path d="M329.642 174.078C332.046 181.362 335.872 191.9 335.872 191.9L338.941 191.327L333.081 174.929C333.081 174.929 330.659 168.606 331.935 164.521L329.143 165.852C329.143 165.852 327.831 168.532 329.642 174.078Z" fill="#311D00"/>
<path d="M350.939 208.52C362.345 209.314 365.045 204.249 365.045 204.249C361.347 204.249 354.193 204.249 354.193 204.249C354.026 206.412 350.939 208.52 350.939 208.52Z" fill="#311D00"/>
<path d="M218.479 266.421C220.18 266.421 222.011 268.602 222.011 268.602L226.281 273.298L242.161 247.25C244.805 243.109 249.556 237.23 249.186 237.544C249.186 237.544 247.227 232.682 246.265 230.741C245.545 229.29 245.196 227.683 245.249 226.064C242.276 229.607 239.498 233.31 236.93 237.156C234.304 240.946 226.78 252.925 218.479 266.421Z" fill="#311D00"/>
<path d="M419.785 298.422C421.141 298.548 422.428 299.076 423.482 299.938C423.482 299.938 435.462 298.422 438.031 297.387C431.971 298.04 425.88 298.385 419.785 298.422V298.422Z" fill="#311D00"/>
<path d="M424.333 341.386C424.333 341.386 416.069 341.515 404.588 341.386L408.027 349.261L420.968 346.71C420.968 346.71 425.719 346.488 424.333 341.386Z" fill="#311D00"/>
<path d="M392.535 318.943C392.535 318.943 384.881 320.2 383.532 320.366C383.532 320.366 394.92 348.263 396.713 351.683C399.774 351.254 402.805 350.637 405.79 349.834C400.824 339.781 396.399 329.469 392.535 318.943Z" fill="#311D00"/>
<path d="M412.594 363.496C412.594 363.496 404.829 365.216 402.943 365.567C402.943 365.567 413.888 385.588 434.612 395.719C434.612 395.719 434.334 387.825 433.983 384.738C425.704 378.917 418.472 371.735 412.594 363.496Z" fill="#311D00"/>
<path d="M475.19 399.139C475.19 399.139 477.594 406.331 451.157 409.769C451.157 409.769 466.908 407.532 471.179 402.227C471.179 402.227 475.283 398.788 466.908 396.902C458.534 395.017 457.48 396.052 449.623 392.632C449.623 392.632 450.122 400.341 449.955 402.227C452.566 403.027 455.269 403.487 457.997 403.595C457.997 403.595 458.182 401.21 451.49 399.139C451.49 399.139 480.256 401.894 449.955 408.383C450.047 411.651 449.818 414.92 449.271 418.144C449.271 418.144 464.967 414.021 469.811 412.598C475.357 411.193 485.987 406.164 475.19 399.139Z" fill="#311D00"/>
<path d="M292.724 328.463C301.413 347.505 304.814 355.436 307.883 361.259C311.324 361.609 314.796 361.528 318.217 361.019L303.095 328.519C299.647 328.899 296.167 328.881 292.724 328.463V328.463Z" fill="#311D00"/>
<path d="M248.262 224.474C247.837 225.159 247.611 225.95 247.611 226.757C247.611 227.564 247.837 228.355 248.262 229.04L286.9 313.6C290.293 314.185 293.739 314.408 297.179 314.265L255.435 221.83C254.759 221.517 254.018 221.365 253.272 221.387C252.251 221.463 251.263 221.783 250.391 222.32C249.519 222.857 248.789 223.596 248.262 224.474V224.474Z" fill="#311D00"/>
<path d="M444.225 419.715C444.982 419.27 445.61 418.635 446.047 417.873C446.485 417.112 446.717 416.249 446.721 415.371C450.011 378.101 435.776 328.778 421.375 302.212C420.491 301.485 419.42 301.023 418.285 300.879C417.15 300.735 415.997 300.915 414.96 301.399C414.104 301.751 413.357 302.326 412.797 303.062L412.686 303.913V304.301C411.357 304.766 409.981 305.082 408.582 305.244C388.375 309.237 319.678 317.63 300.821 317.149C295.024 317.202 289.229 316.936 283.462 316.355C269.153 314.728 261.795 310.568 251.535 302.563C242.291 293.93 223.601 274.592 220.328 270.229C219.583 269.533 218.612 269.13 217.593 269.092C216.575 269.055 215.576 269.386 214.782 270.026C213.702 270.823 212.982 272.017 212.78 273.344C212.579 274.672 212.914 276.025 213.71 277.107C221.105 285.278 239.592 302.896 239.832 302.988C256.471 321.143 273.349 324.896 288.509 325.746C299.139 326.485 312.838 325.857 310.416 326.005C338.294 324.322 385.713 317.704 411.669 312.971C413.518 312.528 415.2 312.232 415.2 312.232H416.106C417.345 312.805 418.509 316.576 418.583 316.854V316.706C421.301 323.509 426.699 341.164 426.755 341.349C426.81 341.534 428.234 346.747 427.66 347.339C426.736 348.263 419.545 349.964 419.545 349.964C406.215 353.513 351.143 361.685 321.342 363.349C321.138 363.349 313.3 364.606 296.458 362.073L185.869 343.919L179.731 352.33C179.25 352.33 294.092 371.021 294.092 371.021C302.206 372.359 310.418 373.014 318.642 372.98L321.97 372.888C326.13 372.703 328.496 372.333 328.552 372.333C359.351 369.227 398.34 364.236 423.556 358.246C425.223 357.899 426.92 357.719 428.622 357.71C429.347 357.796 430.056 357.983 430.729 358.265C431.45 359.183 431.922 360.272 432.097 361.426C436.608 377.676 437.551 402.097 437.643 403.225C437.723 405.597 437.468 407.968 436.885 410.269C435.432 411.188 433.8 411.787 432.097 412.025C391.075 422.563 343.378 415.186 324.891 375.531C320.898 375.864 314.797 375.753 314.797 375.753C315.293 377.214 315.912 378.63 316.646 379.987C328.57 406.405 350.052 416.961 368.206 421.731C388.209 427.018 411.983 426.685 434.149 420.973C437.736 419.771 437.606 419.512 437.606 419.512C438.636 420.001 439.755 420.271 440.894 420.306C442.033 420.341 443.167 420.14 444.225 419.715V419.715Z" fill="#311D00"/>
<path d="M192.616 304.319C191.766 305.817 189.825 309.034 185.832 314.654C185.047 315.555 184.474 316.621 184.155 317.772C183.835 318.924 183.776 320.132 183.983 321.309C184.666 323.227 186.082 324.796 187.921 325.672V325.672L206.815 337.263L209.014 338.594L215.097 342.292C219.571 345.268 224.95 342.865 227.742 339.112C230.219 335.766 231.18 330.996 226.115 326.171C224.586 324.689 222.817 323.477 220.883 322.585C216.816 320.329 202.71 311.788 196.018 307.592C194.642 306.785 193.476 305.664 192.616 304.319V304.319ZM199.401 323.453C199.993 321.808 201.25 318.961 206.5 318.61H206.574C208.666 318.463 210.744 319.052 212.448 320.274C214.152 321.495 215.377 323.274 215.91 325.302C217.3 325.168 218.703 325.317 220.035 325.74C221.366 326.162 222.598 326.85 223.656 327.761C228.925 332.937 225.32 337.651 225.283 337.707C225.246 337.762 220.865 343.771 212.934 339.056C211.84 338.398 210.936 337.468 210.309 336.357V336.357C209.94 335.684 209.619 334.986 209.347 334.268C207.563 334.661 205.701 334.48 204.025 333.754C202.349 333.027 200.944 331.79 200.011 330.22C199.438 329.199 199.087 328.068 198.982 326.902C198.877 325.736 199.02 324.56 199.401 323.453V323.453Z" fill="#311D00"/>
<path d="M231.069 317.575C227.113 314.58 217.98 308.59 211.029 304.116L209.402 305.706C209.402 305.706 224.802 315.948 228.758 318.647C233.269 321.697 235.025 325.561 234.304 329.443C234.304 329.406 238.131 322.954 231.069 317.575Z" fill="#311D00"/>
<path d="M197.33 305.965C203.967 310.124 225.634 322.88 225.634 322.88C225.634 322.88 231.476 326.578 231.735 331.311C233.583 326.282 230.533 322.566 227.501 320.385L207.35 306.889C203.653 307.924 195.611 303.746 195.907 298.552C193.91 300.271 193.522 303.58 197.33 305.965Z" fill="#311D00"/>
<path d="M213.969 330.922C214.819 335.544 217.666 337.596 222.898 336.912L223.989 336.746C226.965 332.383 222.325 326.448 216.409 326.633C216.154 328.315 215.285 329.844 213.969 330.922V330.922Z" fill="#311D00"/>
<path d="M210.438 332.475C210.67 333.75 211.201 334.952 211.987 335.983C212.774 337.014 213.793 337.843 214.961 338.404C216.13 338.965 217.415 339.241 218.711 339.21C220.007 339.179 221.277 338.841 222.417 338.224C219.515 338.687 213.47 338.502 212.527 331.569C208.145 333.196 200.325 331.939 201.009 323.379C198.661 329.702 204.91 334.139 210.438 332.475Z" fill="#311D00"/>
<path d="M445.057 298.293C439.51 299.901 431.617 301.491 425.442 302.563C427.568 306.704 428.086 308.386 428.825 309.958C430.981 309.695 433.122 309.325 435.24 308.849C440.786 307.795 446.48 306.464 449.29 305.595L450.418 305.336C451.399 305.19 452.29 304.682 452.916 303.913C453.542 303.143 453.858 302.167 453.801 301.177C453.726 300.183 453.299 299.249 452.598 298.541C451.897 297.833 450.967 297.398 449.974 297.313C448.316 297.536 446.674 297.863 445.057 298.293V298.293Z" fill="#311D00"/>
<path d="M457.443 336.93C452.987 337.966 439.64 340.535 439.64 340.535L440.49 342.939C444.187 342.587 459.68 338.65 459.68 338.65C462.638 338.65 462.748 340.591 462.748 340.591C456.759 342.791 441.359 346.026 441.359 346.026C442.043 348.929 443.522 354.586 443.522 354.586C461.676 351.332 465.614 349.335 465.614 349.335C470.92 347.098 468.868 340.887 468.868 340.887C466.871 333.677 457.443 336.93 457.443 336.93Z" fill="#311D00"/>
<path d="M463.544 306.76C460.234 294.318 453.024 295.852 453.024 295.852C456.962 297.054 460.419 303.691 453.135 307.629C456.383 316.051 459.003 324.702 460.974 333.51C474.211 333.418 474.895 349.298 467.13 351.813C467.13 351.813 472.14 377.158 473.527 391.116C473.608 392.674 473.608 394.235 473.527 395.793C479.073 396.921 482.197 400.748 482.197 402.818C484.896 386.79 475.542 340.535 463.544 306.76Z" fill="#311D00"/>
<path d="M386.73 298.274L389.651 304.966C389.651 304.966 403.904 303.414 410.079 301.861C410.148 301.158 410.459 300.502 410.958 300.003C411.457 299.504 412.113 299.194 412.815 299.125C404.115 299.801 395.367 299.516 386.73 298.274Z" fill="#311D00"/>
<path d="M190.268 330.404C190.268 330.404 183.04 326.06 182.134 324.322L167.751 346.285C167.399 346.721 167.179 347.248 167.117 347.805C167.055 348.362 167.153 348.925 167.4 349.428C167.944 350.364 168.712 351.151 169.634 351.719C170.557 352.287 171.606 352.618 172.687 352.681C173.4 352.766 174.123 352.651 174.775 352.351C175.428 352.051 175.985 351.577 176.385 350.981C176.385 350.981 187.236 334.878 190.268 330.404Z" fill="#311D00"/>
<path d="M255.86 218.706C256.822 219.242 256.988 219.464 258.134 221.498C258.855 222.755 260.87 227.044 260.87 227.044C264.969 223.936 269.563 221.542 274.458 219.963C295.09 211.589 319.751 206.634 341.529 202.29L343.193 201.957C346.743 201.384 347.685 199.221 347.427 197.372C347.128 196.176 346.394 195.135 345.368 194.451C344.343 193.768 343.099 193.491 341.88 193.675C314.668 198.075 283.203 206.19 268.025 212.55C263.784 214.212 259.711 216.273 255.86 218.706V218.706Z" fill="#311D00"/>
<path d="M199.438 297.646C198.144 299.18 200.289 301.343 200.732 301.824C202.673 303.672 205.798 304.892 207.277 303.672L218.369 286.202C215.776 283.826 213.389 281.235 211.233 278.456C202.174 293.246 199.789 297.146 199.623 297.424L199.438 297.646Z" fill="#311D00"/>
<path d="M366.819 191.604C368.014 194.383 368.756 197.335 369.019 200.348C373.327 200.755 381.72 201.55 384.918 202.197C388.468 202.197 389.096 199.849 389.189 198.814C389.355 196.965 388.301 194.58 386.49 194.322H386.397H386.268C379.838 193.07 373.346 192.163 366.819 191.604V191.604Z" fill="#311D00"/>
<path d="M210.272 328.149C209.511 328.186 208.751 328.073 208.035 327.816C208.031 328.693 208.124 329.567 208.312 330.423C212.453 331.052 214.487 328.426 214.727 326.504H214.394C214.342 325.081 213.835 323.713 212.946 322.601C212.057 321.49 210.834 320.693 209.458 320.329C208.527 322.183 208.033 324.226 208.016 326.3C208.754 326.659 209.548 326.891 210.364 326.984C210.31 327.37 210.279 327.759 210.272 328.149V328.149Z" fill="#311D00"/>
<path d="M205.261 329.517C205.557 329.647 205.705 329.887 205.982 329.961C205.745 328.962 205.64 327.937 205.668 326.911C205.151 326.559 204.725 326.43 204.466 325.968V324.526C204.873 324.969 205.187 324.969 205.594 325.321C205.602 323.489 206.039 321.684 206.87 320.052C206.076 319.976 205.276 320.072 204.523 320.334C203.77 320.596 203.082 321.016 202.507 321.568C202.507 321.568 201.157 327.206 205.261 329.517Z" fill="#311D00"/>
<path d="M377.301 190.125L365.266 162.931L362.53 164.021C361.902 162.801 360.682 162.339 358.833 162.173C259.003 -16.2272 -48.5287 82.6784 25.4749 318.721C30.1084 333.465 36.0413 347.768 43.2039 361.463C42.2699 365.226 42.2699 369.161 43.2039 372.925C45.2005 380.486 46.9013 385.126 52.9651 398.511C50.4878 407.588 58.9918 420.936 79.5679 416.998C104.026 413.208 116.819 404.334 119.796 402.079C120.609 402.652 121.441 403.243 122.254 403.927C165.644 437.777 236.615 440.476 262.756 400.396C270.531 401.624 278.441 401.755 286.253 400.785C299.822 399.879 310.767 396.255 319.308 390.617C318.272 388.916 317.256 387.197 316.331 385.403C305.368 392.798 289.58 396.773 267.396 394.98L265.973 394.795C269.718 387.173 271.959 378.9 272.572 370.429L267.507 369.579C267.835 376.152 266.906 382.727 264.771 388.953C263.435 392.718 261.567 396.273 259.225 399.509V399.509C253.997 407.209 246.906 413.461 238.612 417.682C205.76 434.801 154.755 424.799 125.138 402.726C108.112 390.044 98.1843 390.432 81.9342 395.331C63.9648 400.785 64.6489 390.358 64.6489 390.358C49.5635 368.895 35.6982 345.989 23.8295 302.766C-4.58505 188.942 59.3431 109.115 141.259 82.7709C225.837 68.3695 291.004 115.918 318.143 161.895C317.338 162.341 316.653 162.975 316.146 163.744C313.447 167.959 316.886 175.003 317.145 175.631L323.652 194.414L326.665 193.841L319.271 173.413C316.35 166.517 319.622 163.947 319.622 163.947C319.027 166.288 319.143 168.753 319.955 171.028C320.916 174.041 324.133 182.878 326.795 189.7C327.312 191.031 327.793 192.325 328.218 193.545L330.622 193.083C328.329 186.206 325.186 178.164 324.244 175.502C323.43 173.265 323.042 172.414 322.007 168.809C320.602 163.929 322.524 163.818 324.595 163.652C325.76 163.652 329.291 163.652 330.141 163.652C332.267 162.505 336.815 160.25 339.551 158.882C306.736 103.421 240.997 66.3544 154.81 78.9625C222.805 62.4351 300.026 82.0129 346.502 148.252C349.53 152.687 352.301 157.292 354.803 162.043H353.139C352.283 160.568 351.057 159.342 349.581 158.486C348.106 157.63 346.433 157.174 344.727 157.163C344.561 157.163 338.368 157.163 339.181 163.43C339.463 165.287 339.998 167.097 340.771 168.809V168.809L345.393 178.515L346.613 181.103L351.05 190.07C351.05 190.07 354.359 196.651 354.544 200.145L366.505 200.367C366.372 196.85 365.562 193.391 364.12 190.18C362.271 185.503 356.725 168.31 354.877 164.872V164.705C356.307 164.703 357.736 164.821 359.147 165.057C361.495 171.046 364.915 181.288 367.522 189.367H368.502L370.572 189.533C370.577 189.484 370.577 189.435 370.572 189.386C371.7 189.478 375.822 189.829 377.301 190.125ZM45.293 365.4C53.3903 380.19 60.5078 389.711 62.6893 391.948C62.6893 392.299 62.8556 392.65 62.9295 392.965C62.7632 395.109 63.2438 401.543 75.8705 399.195C72.0252 406.59 57.7717 402.467 60.5448 392.706C58.4927 390.155 53.4642 381.983 53.4642 381.983C53.4642 381.983 53.6861 384.424 53.6676 384.257C55.3499 387.77 58.3078 393.852 58.3078 393.852C56.0339 408.142 76.5545 409.215 78.015 398.733C78.015 398.733 78.1074 398.733 78.1259 398.733C79.1981 398.548 79.2166 398.733 79.9746 398.326C79.7653 399.966 79.1703 401.533 78.2384 402.899C77.3065 404.264 76.0642 405.39 74.6134 406.183C70.195 408.401 68.9194 412.321 75.5932 411.84C87.1151 410.849 98.3443 407.681 108.685 402.504L111.68 400.859C106.619 397.91 100.897 396.282 95.0416 396.126C90.7552 396.148 86.4841 396.638 82.304 397.586L83.025 397.383C99.3675 391.985 109.443 395.349 117.54 400.544C117.041 400.859 116.45 401.302 115.876 401.709C108.648 406.922 91.7139 413.226 76.6469 414.65C61.3397 417.127 52.8172 406.368 55.7751 398.196L54.9432 396.126C53.9819 394.074 44.2022 374.089 45.293 365.4ZM356.836 179.902C357.927 184.653 354.488 187.204 351.087 183.285C349.814 181.809 348.892 180.065 348.388 178.182L348.277 177.887C347.932 176.403 347.826 174.874 347.963 173.357C346.4 171.966 345.141 170.266 344.265 168.366C342.25 162.394 344.265 160.971 345.152 160.694C348.462 159.88 353.065 164.798 352.751 172.156C354.928 174.218 356.364 176.94 356.836 179.902V179.902Z" fill="#311D00"/>
<path d="M356.836 179.902C356.364 176.941 354.928 174.218 352.751 172.156C353.065 164.761 348.462 159.88 345.153 160.694C344.265 161.027 342.25 162.395 344.265 168.366C345.141 170.267 346.4 171.966 347.963 173.357C347.826 174.874 347.932 176.403 348.277 177.887L348.388 178.183C348.892 180.065 349.815 181.809 351.087 183.285C354.47 187.204 357.927 184.653 356.836 179.902ZM348.684 171.601C347.437 170.665 346.427 169.45 345.734 168.054C345.041 166.657 344.683 165.118 344.69 163.559C348.758 163.615 349.959 169.568 348.684 171.601V171.601ZM352.917 182.693C350.853 180.71 349.651 177.994 349.571 175.132C350.359 175.306 351.094 175.663 351.718 176.175C352.342 176.686 352.837 177.337 353.163 178.075C353.489 178.813 353.636 179.617 353.594 180.423C353.551 181.228 353.319 182.012 352.917 182.712V182.693Z" fill="white"/>
</g>
<defs>
<clipPath id="clip0_199_20">
<rect width="500" height="386.508" fill="white" transform="translate(0 57)"/>
</clipPath>
</defs>
</svg>
